<svg id="レイヤー_1" data-name="レイヤー 1" xmlns="http://www.w3.org/2000/svg" viewBox="0 0 158 235"><defs><style>.cls-1{fill:#f0e6dd;}.cls-2{fill:#231815;}.cls-3{fill:#fffdfb;}.cls-4{fill:#9e9e9f;}.cls-5{fill:#cd7750;}</style></defs><title>chikuwa</title><polygon class="cls-1" points="4.36 89.63 6.76 75.98 12.22 63.5 17.05 51.04 22.97 38.71 31.56 27.11 42.14 18.77 52.72 10.8 60.15 6.27 51.32 4.73 37.5 6.93 23.61 5.37 9.99 7.45 0.5 7.19 0.5 103.25 4.36 89.63"/><polygon class="cls-1" points="41.9 215.71 30.53 207.67 21.06 196.67 16.34 183.67 9.34 157.48 5.67 144.57 4.12 130.87 1.23 117.64 0.5 103.25 0.5 228.77 3.67 229.16 9.39 229.1 23.3 227.02 37.49 228.61 51.06 227.68 55.22 227.46 51.33 226.46 41.9 215.71"/><polygon class="cls-2" points="9.68 5.45 23.57 3.32 37.45 4.88 51.34 2.68 62.78 4.66 65.19 3.19 66.25 3.02 65.36 3.05 51.35 0.62 37.41 2.83 23.53 1.27 9.73 3.42 0.5 3.16 0.5 5.23 9.68 5.45"/><polygon class="cls-2" points="65.56 230.11 61.78 229.14 51.2 229.7 37.27 230.63 23.34 229.06 9.41 231.13 9.41 231.13 2.42 231.19 0.5 231.21 0.5 233.23 9.7 233.13 23.37 231.11 37.4 232.65 64.91 230.97 81.8 233.06 81.74 231.64 79.2 231.75 65.56 230.11"/><polygon class="cls-2" points="9.99 7.45 23.61 5.37 37.5 6.93 51.32 4.73 60.15 6.27 62.78 4.66 51.34 2.68 37.45 4.88 23.57 3.32 9.68 5.45 0.5 5.23 0.5 7.19 9.99 7.45"/><polygon class="cls-2" points="-18.44 230 -18.44 230 -4.51 231.26 0.5 231.21 -4.51 231.26 -18.44 230"/><polygon class="cls-2" points="51.06 227.68 37.49 228.61 23.3 227.02 9.39 229.1 3.67 229.16 8.31 229.73 9.41 231.13 23.34 229.06 37.27 230.63 51.2 229.7 61.78 229.14 55.22 227.46 51.06 227.68"/><path class="cls-3" d="M81.67,32.47l.86,14.3-2.44,14.1L81.4,74.73l.06,1.75c14.22,1.77,25.42,19.35,25.42,40.72s-11.22,39-25.45,40.73l-.09,1.82-.45,14.07.57,14,1.13,14L81.14,216.3l.44,11.31,10.48-.48,11-7.09,10.77-7.47,9.65-8.82,8.06-10.36,7-11.1,4.32-12.62L149,157.4l1.14-13.31,2.29-13.31-1.58-13.5-.47-13.47-1-13.39-2.09-13-5.2-12.28-4.53-12.52-7.37-10.94-5.4-12.49-10.84-7.46-10.7-8L92,7.38l-11.24-2,.58,12.86Z"/><path class="cls-3" d="M78.54,201.77,77.42,188l-.58-14.2.44-14.26.09-1.58c-14.51-1.34-26-19.12-26-40.8S62.89,77.71,77.4,76.41L77.35,75,76,60.71l2.46-14.16-.85-13.9-.36-14.23L76.72,6.75l-10.08.32-.41.06L55,14.14,44.61,22,34.29,30.12,26.43,40.79,20.77,52.65,16,65.05l-5.4,12.33L8.31,90.53,4.58,103.71l.66,13.4,2.87,13.11,1.53,13.57,7.16,25.5,3.41,13.18,4.53,12.45,8.68,9.9,11.37,8,8.77,10,12.75,3.29,11.21,1.36-.43-11.31Z"/><path class="cls-3" d="M79.64,32.52l.86,14.14L78.05,60.79l1.32,14.13.06,1.42a19.58,19.58,0,0,1,2,.14l-.06-1.75L80.09,60.87l2.44-14.1-.86-14.3L81.3,18.28,80.72,5.42l-1.63-.29-.41.06.59,13.18Z"/><path class="cls-3" d="M82.59,201.82l-1.13-14-.57-14,.45-14.07.09-1.82a17.18,17.18,0,0,1-2,.15l-.08,1.57-.45,14.11.58,14.12L80.56,202,79.12,216.1l.44,11.6,2-.09-.44-11.31Z"/><path class="cls-3" d="M80.56,202l-1.12-14.1-.58-14.12.45-14.11.08-1.57h-.28c-.58,0-1.17,0-1.74-.09l-.09,1.58-.44,14.26.58,14.2,1.12,13.73-1.45,14.41.43,11.31,1.84.22h.2l-.44-11.6Z"/><path class="cls-3" d="M76.72,6.75l.53,11.67.36,14.23.85,13.9L76,60.71,77.35,75l.05,1.41c.57,0,1.14-.09,1.71-.09l.32,0-.06-1.42L78.05,60.79,80.5,46.66l-.86-14.14-.37-14.15L78.68,5.19l-12,1.88Z"/><polygon class="cls-2" points="154.87 117.05 154.4 103.59 153.38 89.94 151.22 76.57 145.84 63.7 141.26 51.05 133.7 39.78 128.02 26.55 116.28 18.48 105.44 10.43 93.67 3.69 79.13 1.02 66.25 3.02 80.59 2.56 80.63 3.34 92.66 5.45 104.44 12.19 115.07 20.1 126.39 27.89 131.84 40.58 139.36 51.73 143.93 64.39 149.22 76.89 151.38 90.27 152.38 103.74 152.85 117.21 154.45 130.83 152.13 144.26 150.96 157.96 144.79 170.32 140.4 183.17 133.13 194.64 124.85 205.25 114.98 214.23 104.16 221.75 92.7 229.13 81.66 229.61 81.74 231.64 93.33 231.13 105.31 223.42 116.35 215.73 126.45 206.49 134.85 195.72 142.11 184.25 146.6 171.23 152.77 158.86 154.13 144.61 156.5 130.89 154.87 117.05"/><polygon class="cls-2" points="43.26 214.19 32.05 206.34 22.97 195.97 18.25 182.97 14.84 169.83 11.3 156.94 7.62 144.02 6.13 130.65 3.21 117.21 2.54 103.48 6.31 90.18 8.61 76.8 14.08 64.32 18.94 51.77 24.8 39.59 32.82 28.7 43.39 20.36 53.94 12.42 63 6.76 60.15 6.27 52.72 10.8 42.14 18.77 31.56 27.11 22.97 38.71 17.05 51.04 12.22 63.5 6.76 75.98 4.36 89.63 0.5 103.25 1.23 117.64 4.12 130.87 5.67 144.57 9.34 157.48 16.34 183.67 21.06 196.67 30.53 207.67 41.9 215.71 51.33 226.46 55.22 227.46 61.94 227.1 52.44 224.65 43.26 214.19"/><polygon class="cls-2" points="62.78 4.66 65.22 5.09 66.43 5.05 79.11 3.07 80.63 3.34 80.59 2.56 66.25 3.02 65.19 3.19 62.78 4.66"/><polygon class="cls-2" points="79.64 229.7 79.68 230.76 65.16 228.96 61.78 229.14 65.56 230.11 79.2 231.75 81.74 231.64 81.66 229.61 79.64 229.7"/><polygon class="cls-2" points="65.8 228.09 61.94 227.1 55.22 227.46 61.78 229.14 65.16 228.96 79.68 230.76 79.64 229.7 79.11 229.73 65.8 228.09"/><polygon class="cls-2" points="63 6.76 65.5 5.19 66.43 5.05 65.22 5.09 62.78 4.66 60.15 6.27 63 6.76"/><polygon class="cls-2" points="91.96 7.38 103.22 13.81 113.92 21.77 124.76 29.23 130.16 41.72 137.53 52.66 142.06 65.18 147.26 77.46 149.35 90.42 150.35 103.81 150.82 117.28 152.4 130.78 150.11 144.09 148.97 157.4 142.87 169.67 138.56 182.29 131.54 193.39 123.48 203.75 113.83 212.57 103.06 220.04 92.06 227.13 81.58 227.61 81.66 229.61 92.7 229.13 104.16 221.75 114.98 214.23 124.85 205.25 133.13 194.64 140.4 183.17 144.79 170.32 150.96 157.96 152.13 144.26 154.45 130.83 152.85 117.21 152.38 103.74 151.38 90.27 149.22 76.89 143.93 64.39 139.36 51.73 131.84 40.58 126.39 27.89 115.07 20.1 104.44 12.19 92.66 5.45 80.63 3.34 80.72 5.42 91.96 7.38"/><polygon class="cls-2" points="53.55 222.84 44.79 212.85 33.42 204.81 24.74 194.92 20.21 182.47 16.8 169.29 9.64 143.79 8.12 130.22 5.24 117.11 4.58 103.71 8.31 90.53 10.57 77.38 15.97 65.05 20.77 52.65 26.43 40.79 34.29 30.12 44.61 21.98 55.01 14.14 66.23 7.13 66.64 7.07 65.08 7.12 63 6.76 53.94 12.42 43.39 20.36 32.82 28.7 24.8 39.59 18.94 51.77 14.08 64.32 8.61 76.8 6.31 90.18 2.54 103.48 3.21 117.21 6.13 130.65 7.62 144.02 11.3 156.94 14.84 169.83 18.25 182.97 22.97 195.97 32.05 206.34 43.26 214.19 52.44 224.65 61.94 227.1 65.05 226.93 77.56 228.46 77.52 227.49 66.31 226.13 53.55 222.84"/><polygon class="cls-2" points="79.56 227.7 79.64 229.7 81.66 229.61 81.58 227.61 79.56 227.7"/><polygon class="cls-2" points="66.43 5.05 78.66 4.66 78.68 5.19 79.09 5.13 80.72 5.42 80.63 3.34 79.11 3.07 66.43 5.05"/><polygon class="cls-2" points="63 6.76 65.08 7.12 66.64 7.07 78.68 5.19 78.66 4.66 66.43 5.05 65.5 5.19 63 6.76"/><polygon class="cls-2" points="79.36 227.71 77.52 227.49 77.56 228.46 65.05 226.93 61.94 227.1 65.8 228.09 79.11 229.73 79.64 229.7 79.56 227.7 79.36 227.71"/><path class="cls-4" d="M81.63,80.59a15.31,15.31,0,0,0-2-.19l-.48,0c-.52,0-1,0-1.55.09C65.21,81.71,55.4,97.71,55.4,117.2s9.81,35.5,22.17,36.74a13.13,13.13,0,0,0,1.54.09l.49,0a15.32,15.32,0,0,0,2-.19c11.9-2,21.19-17.63,21.19-36.62S93.52,82.55,81.63,80.59Z"/><path class="cls-2" d="M104.85,117.21c0,20.22-10.24,36.83-23.32,38.67l-.1,2.05c14.23-1.73,25.45-19.33,25.45-40.73S95.68,78.25,81.46,76.48l.09,2C94.62,80.38,104.85,97,104.85,117.21Z"/><path class="cls-2" d="M51.34,117.2c0,21.68,11.52,39.46,26,40.8l.1-2c-13.45-1.28-24.1-18.14-24.1-38.76S64,79.71,77.48,78.44l-.08-2C62.89,77.71,51.34,95.51,51.34,117.2Z"/><path class="cls-2" d="M81.55,78.53l-.09-2a19.58,19.58,0,0,0-2-.14l.08,2A17.52,17.52,0,0,1,81.55,78.53Z"/><path class="cls-2" d="M79.5,156l-.11,2a17.18,17.18,0,0,0,2-.15l.1-2.05A15.29,15.29,0,0,1,79.5,156Z"/><path class="cls-2" d="M79.11,78.35l.4,0-.08-2-.32,0c-.57,0-1.14,0-1.71.09l.08,2C78,78.39,78.57,78.35,79.11,78.35Z"/><path class="cls-2" d="M79.11,156.06c-.55,0-1.1,0-1.64-.09l-.1,2c.57.05,1.16.09,1.74.09h.28l.11-2Z"/><path class="cls-2" d="M102.82,117.2c0,19-9.29,34.66-21.19,36.62l-.1,2.06c13.08-1.84,23.32-18.45,23.32-38.67S94.62,80.38,81.55,78.53l.08,2.06C93.52,82.55,102.82,98.22,102.82,117.2Z"/><path class="cls-2" d="M55.4,117.2c0-19.49,9.81-35.49,22.16-36.73l-.08-2C64,79.71,53.37,96.57,53.37,117.21S64,154.69,77.47,156l.1-2C65.21,152.7,55.4,136.71,55.4,117.2Z"/><path class="cls-2" d="M79.6,154l-.1,2a15.29,15.29,0,0,0,2-.16l.1-2.06A15.32,15.32,0,0,1,79.6,154Z"/><path class="cls-2" d="M81.63,80.59l-.08-2.06a17.52,17.52,0,0,0-2-.16l.08,2A15.31,15.31,0,0,1,81.63,80.59Z"/><path class="cls-2" d="M79.5,156l.1-2-.49,0a13.13,13.13,0,0,1-1.54-.09l-.1,2c.54.05,1.09.09,1.64.09Z"/><path class="cls-2" d="M79.11,80.38l.48,0-.08-2-.4,0c-.54,0-1.09,0-1.63.09l.08,2C78.08,80.42,78.59,80.38,79.11,80.38Z"/><polygon class="cls-5" points="0.5 229.19 3.67 229.16 0.5 228.77 0.5 229.19"/><polygon class="cls-5" points="9.41 231.13 9.41 231.13 2.42 231.19 9.41 231.13"/><polygon class="cls-2" points="3.67 229.16 0.5 229.19 0.5 231.21 2.42 231.19 9.41 231.13 8.31 229.73 3.67 229.16"/></svg>