<svg id="レイヤー_1" data-name="レイヤー 1" xmlns="http://www.w3.org/2000/svg" viewBox="0 0 77 235"><defs><style>.cls-1{fill:#f0e6dd;}.cls-2{fill:#231815;}</style></defs><title>chikuwa</title><polygon class="cls-1" points="65.41 8.82 53.43 13.92 43.31 22.5 26.09 42.62 19.58 54.03 15.18 66.42 9.4 78.72 7.71 91.94 4.83 105.25 4.94 118.69 7.47 131.77 7.73 145.69 9.63 158.65 14.88 170.97 18.04 184.28 26.17 194.86 33.87 206.08 42.7 215.48 54.32 221.62 65.45 229.52 77 230.93 77 8.06 65.41 8.82"/><polygon class="cls-2" points="64.7 231.47 53.38 223.41 41.45 217.12 32.2 207.22 24.56 196.09 16.17 185.17 13.02 171.76 7.67 159.2 5.7 145.73 5.47 132.15 2.91 118.71 2.8 105.05 5.7 91.68 7.43 78.15 13.27 65.74 17.82 53.02 24.54 41.3 33.23 31.06 42 20.96 52.35 12.18 64.93 6.82 77 6.03 77 4 64.8 4.8 51.55 10.31 40.47 19.63 22.78 40.29 15.91 52.34 11.43 64.88 5.6 77.28 3.72 91.25 0.77 104.84 0.92 119.08 3.45 132.19 3.69 146.02 5.66 159.5 11.04 172.22 14.19 185.64 22.89 197.24 30.72 208.61 39.97 218.5 52.2 225.07 63.94 233.43 77 235 77 232.97 64.7 231.47"/><polygon class="cls-2" points="65.45 229.52 54.32 221.62 42.7 215.48 33.87 206.08 26.17 194.86 18.04 184.28 14.88 170.97 9.63 158.65 7.73 145.69 7.47 131.77 4.94 118.69 4.83 105.25 7.71 91.94 9.4 78.72 15.18 66.42 19.58 54.03 26.09 42.62 43.31 22.5 53.43 13.92 65.41 8.82 77 8.06 77 6.03 64.93 6.82 52.35 12.18 42 20.96 33.23 31.06 24.54 41.3 17.82 53.02 13.27 65.74 7.43 78.15 5.7 91.68 2.8 105.05 2.91 118.71 5.47 132.15 5.7 145.73 7.67 159.2 13.02 171.76 16.17 185.17 24.56 196.09 32.2 207.22 41.45 217.12 53.38 223.41 64.7 231.47 77 232.97 77 230.93 65.45 229.52"/></svg>