<svg id="レイヤー_1" data-name="レイヤー 1" xmlns="http://www.w3.org/2000/svg" xmlns:xlink="http://www.w3.org/1999/xlink" viewBox="0 0 921 235"><defs><style>.cls-1{fill:#f0e6dd;}.cls-2{fill:#231815;}.cls-3{fill:#fffdfb;}.cls-4{fill:#9e9e9f;}.cls-5{fill:#cd7750;}.cls-6{fill:url(#名称未設定グラデーション_39);}</style><linearGradient id="名称未設定グラデーション_39" x1="77.49" y1="118.72" x2="765" y2="118.72" gradientUnits="userSpaceOnUse"><stop offset="0" stop-color="red"/><stop offset="0.3" stop-color="#ff0"/><stop offset="0.57" stop-color="#39b54a"/><stop offset="0.8" stop-color="blue"/><stop offset="1" stop-color="#662d91"/></linearGradient></defs><title>chikuwa_pc</title><polygon class="cls-1" points="65.41 8.82 53.43 13.92 43.31 22.5 26.09 42.62 19.58 54.03 15.18 66.42 9.4 78.72 7.71 91.94 4.83 105.25 4.94 118.69 7.47 131.77 7.73 145.69 9.63 158.65 14.88 170.97 18.04 184.28 26.17 194.86 33.87 206.08 42.7 215.48 54.32 221.62 65.45 229.52 77 230.93 77 8.06 65.41 8.82"/><polygon class="cls-2" points="64.7 231.47 53.38 223.41 41.45 217.12 32.2 207.22 24.56 196.09 16.17 185.17 13.02 171.76 7.67 159.2 5.7 145.73 5.47 132.15 2.91 118.71 2.8 105.05 5.7 91.68 7.43 78.15 13.27 65.74 17.82 53.02 24.54 41.3 33.23 31.06 42 20.96 52.35 12.18 64.93 6.82 77 6.03 77 4 64.8 4.8 51.55 10.31 40.47 19.63 22.78 40.29 15.91 52.34 11.43 64.88 5.6 77.28 3.72 91.25 0.77 104.84 0.92 119.08 3.45 132.19 3.69 146.02 5.66 159.5 11.04 172.22 14.19 185.64 22.89 197.24 30.72 208.61 39.97 218.5 52.2 225.07 63.94 233.43 77 235 77 232.97 64.7 231.47"/><polygon class="cls-2" points="65.45 229.52 54.32 221.62 42.7 215.48 33.87 206.08 26.17 194.86 18.04 184.28 14.88 170.97 9.63 158.65 7.73 145.69 7.47 131.77 4.94 118.69 4.83 105.25 7.71 91.94 9.4 78.72 15.18 66.42 19.58 54.03 26.09 42.62 43.31 22.5 53.43 13.92 65.41 8.82 77 8.06 77 6.03 64.93 6.82 52.35 12.18 42 20.96 33.23 31.06 24.54 41.3 17.82 53.02 13.27 65.74 7.43 78.15 5.7 91.68 2.8 105.05 2.91 118.71 5.47 132.15 5.7 145.73 7.67 159.2 13.02 171.76 16.17 185.17 24.56 196.09 32.2 207.22 41.45 217.12 53.38 223.41 64.7 231.47 77 232.97 77 230.93 65.45 229.52"/><polygon class="cls-1" points="768.86 91.13 771.26 77.48 776.72 65 781.55 52.54 787.47 40.21 796.06 28.61 806.64 20.27 817.22 12.3 824.65 7.77 815.82 6.23 802 8.43 788.11 6.87 774.49 8.95 765 8.69 765 104.75 768.86 91.13"/><polygon class="cls-1" points="806.4 217.21 795.03 209.17 785.56 198.17 780.84 185.17 773.84 158.98 770.17 146.07 768.62 132.37 765.73 119.14 765 104.75 765 230.27 768.17 230.66 773.89 230.6 787.8 228.52 801.99 230.11 815.57 229.18 819.72 228.96 815.83 227.96 806.4 217.21"/><polygon class="cls-2" points="774.18 6.95 788.07 4.82 801.95 6.38 815.84 4.18 827.28 6.16 829.69 4.69 830.75 4.52 829.87 4.55 815.85 2.12 801.9 4.33 788.03 2.77 774.23 4.92 765 4.66 765 6.73 774.18 6.95"/><polygon class="cls-2" points="830.06 231.61 826.28 230.64 815.7 231.2 801.76 232.13 787.84 230.56 773.91 232.63 773.91 232.63 766.92 232.69 765 232.71 765 234.73 774.2 234.63 787.87 232.61 801.9 234.15 829.41 232.47 846.29 234.56 846.24 233.14 843.7 233.25 830.06 231.61"/><polygon class="cls-2" points="774.49 8.95 788.11 6.87 802 8.43 815.82 6.23 824.65 7.77 827.28 6.16 815.84 4.18 801.95 6.38 788.07 4.82 774.18 6.95 765 6.73 765 8.69 774.49 8.95"/><polygon class="cls-2" points="746.06 231.5 746.06 231.5 759.99 232.76 765 232.71 759.99 232.76 746.06 231.5"/><polygon class="cls-2" points="815.57 229.18 801.99 230.11 787.8 228.52 773.89 230.6 768.17 230.66 772.81 231.23 773.91 232.63 787.84 230.56 801.76 232.13 815.7 231.2 826.28 230.64 819.72 228.96 815.57 229.18"/><path class="cls-3" d="M846.17,34l.86,14.3-2.44,14.1,1.31,13.86L846,78c14.22,1.77,25.42,19.35,25.42,40.72s-11.22,39-25.45,40.73l-.09,1.82-.45,14.07.57,14,1.13,14-1.45,14.48.44,11.31,10.48-.48,11-7.09,10.77-7.47,9.65-8.82L896,194.89l7-11.1,4.32-12.62,6.1-12.27,1.14-13.31,2.29-13.31-1.58-13.5-.47-13.47-1-13.39-2.09-13-5.2-12.28L902,54.16l-7.37-10.94-5.4-12.49-10.84-7.46-10.7-8L856.46,8.88l-11.24-2,.58,12.86Z"/><path class="cls-3" d="M843,203.27l-1.12-13.73-.58-14.2.44-14.26.09-1.58c-14.51-1.34-26-19.12-26-40.8s11.55-39.49,26.06-40.79l0-1.41L840.5,62.21,843,48.05l-.85-13.9-.36-14.23-.53-11.67-10.08.32-.41.06-11.22,7-10.4,7.84-10.32,8.14-7.86,10.67-5.66,11.86-4.8,12.4-5.4,12.33L772.81,92l-3.73,13.18.66,13.4,2.87,13.11,1.53,13.57,7.16,25.5L784.71,184l4.53,12.45,8.68,9.9,11.37,8,8.77,10,12.75,3.29L842,229l-.43-11.31Z"/><path class="cls-3" d="M844.14,34,845,48.16l-2.45,14.13,1.32,14.13.06,1.42a19.58,19.58,0,0,1,2,.14l-.06-1.75-1.31-13.86L847,48.27,846.17,34l-.37-14.19-.58-12.86-1.63-.29-.41.06.59,13.18Z"/><path class="cls-3" d="M847.09,203.32l-1.13-14-.57-14,.45-14.07.09-1.82a17.18,17.18,0,0,1-2,.15l-.08,1.57-.45,14.11.58,14.12,1.12,14.1-1.44,14.12.44,11.6,2-.09-.44-11.31Z"/><path class="cls-3" d="M845.06,203.48l-1.12-14.1-.58-14.12.45-14.11.08-1.57h-.28c-.58,0-1.17,0-1.74-.09l-.09,1.58-.44,14.26.58,14.2L843,203.27l-1.45,14.41L842,229l1.84.22h.2l-.44-11.6Z"/><path class="cls-3" d="M841.22,8.25l.53,11.67.36,14.23.85,13.9L840.5,62.21l1.35,14.29,0,1.41c.57,0,1.14-.09,1.71-.09l.32,0-.06-1.42-1.32-14.13L845,48.16,844.14,34l-.37-14.15-.59-13.18-12,1.88Z"/><polygon class="cls-2" points="919.37 118.55 918.9 105.09 917.88 91.44 915.73 78.07 910.34 65.2 905.76 52.55 898.2 41.28 892.52 28.05 880.78 19.98 869.94 11.93 858.17 5.19 843.63 2.52 830.75 4.52 845.09 4.07 845.13 4.84 857.16 6.95 868.93 13.69 879.57 21.6 890.89 29.39 896.34 42.08 903.86 53.23 908.43 65.89 913.72 78.39 915.88 91.77 916.88 105.24 917.35 118.71 918.95 132.33 916.63 145.76 915.46 159.46 909.29 171.82 904.9 184.67 897.63 196.14 889.35 206.75 879.49 215.73 868.66 223.25 857.2 230.63 846.16 231.11 846.24 233.14 857.83 232.63 869.81 224.92 880.85 217.23 890.95 207.99 899.35 197.22 906.61 185.75 911.11 172.73 917.27 160.36 918.63 146.11 921 132.39 919.37 118.55"/><polygon class="cls-2" points="807.76 215.69 796.55 207.84 787.47 197.47 782.75 184.47 779.34 171.33 775.8 158.44 772.12 145.52 770.63 132.15 767.71 118.71 767.04 104.98 770.81 91.68 773.11 78.3 778.58 65.82 783.44 53.27 789.3 41.09 797.32 30.2 807.89 21.86 818.44 13.92 827.5 8.26 824.65 7.77 817.22 12.3 806.64 20.27 796.06 28.61 787.47 40.21 781.55 52.54 776.72 65 771.26 77.48 768.86 91.13 765 104.75 765.73 119.14 768.62 132.37 770.17 146.07 773.84 158.98 780.84 185.17 785.56 198.17 795.03 209.17 806.4 217.21 815.83 227.96 819.72 228.96 826.44 228.6 816.94 226.15 807.76 215.69"/><polygon class="cls-2" points="827.28 6.16 829.72 6.59 830.93 6.55 843.61 4.57 845.13 4.84 845.09 4.07 830.75 4.52 829.69 4.69 827.28 6.16"/><polygon class="cls-2" points="844.14 231.2 844.18 232.26 829.66 230.46 826.28 230.64 830.06 231.61 843.7 233.25 846.24 233.14 846.16 231.11 844.14 231.2"/><polygon class="cls-2" points="830.3 229.59 826.44 228.6 819.72 228.96 826.28 230.64 829.66 230.46 844.18 232.26 844.14 231.2 843.61 231.23 830.3 229.59"/><polygon class="cls-2" points="827.5 8.26 830 6.69 830.93 6.55 829.72 6.59 827.28 6.16 824.65 7.77 827.5 8.26"/><polygon class="cls-2" points="856.46 8.88 867.73 15.31 878.42 23.27 889.26 30.73 894.66 43.22 902.03 54.16 906.56 66.68 911.76 78.96 913.85 91.92 914.85 105.31 915.32 118.78 916.9 132.28 914.61 145.59 913.47 158.9 907.37 171.17 903.05 183.79 896.04 194.89 887.98 205.25 878.33 214.07 867.56 221.54 856.56 228.63 846.08 229.11 846.16 231.11 857.2 230.63 868.66 223.25 879.49 215.73 889.35 206.75 897.63 196.14 904.9 184.67 909.29 171.82 915.46 159.46 916.63 145.76 918.95 132.33 917.35 118.71 916.88 105.24 915.88 91.77 913.72 78.39 908.43 65.89 903.86 53.23 896.34 42.08 890.89 29.39 879.57 21.6 868.93 13.69 857.16 6.95 845.13 4.84 845.22 6.92 856.46 8.88"/><polygon class="cls-2" points="818.05 224.34 809.29 214.35 797.92 206.31 789.24 196.42 784.71 183.97 781.3 170.79 774.14 145.29 772.62 131.72 769.74 118.61 769.09 105.21 772.81 92.03 775.07 78.88 780.47 66.55 785.27 54.15 790.93 42.29 798.79 31.62 809.11 23.48 819.51 15.64 830.73 8.63 831.13 8.57 829.58 8.62 827.5 8.26 818.44 13.92 807.89 21.86 797.32 30.2 789.3 41.09 783.44 53.27 778.58 65.82 773.11 78.3 770.81 91.68 767.04 104.98 767.71 118.71 770.63 132.15 772.12 145.52 775.8 158.44 779.34 171.33 782.75 184.47 787.47 197.47 796.55 207.84 807.76 215.69 816.94 226.15 826.44 228.6 829.55 228.43 842.06 229.96 842.02 228.99 830.81 227.63 818.05 224.34"/><polygon class="cls-2" points="844.06 229.2 844.14 231.2 846.16 231.11 846.08 229.11 844.06 229.2"/><polygon class="cls-2" points="830.93 6.55 843.16 6.16 843.18 6.69 843.59 6.63 845.22 6.92 845.13 4.84 843.61 4.57 830.93 6.55"/><polygon class="cls-2" points="827.5 8.26 829.58 8.62 831.13 8.57 843.18 6.69 843.16 6.16 830.93 6.55 830 6.69 827.5 8.26"/><polygon class="cls-2" points="843.86 229.21 842.02 228.99 842.06 229.96 829.55 228.43 826.44 228.6 830.3 229.59 843.61 231.23 844.14 231.2 844.06 229.2 843.86 229.21"/><path class="cls-4" d="M846.13,82.09a15.31,15.31,0,0,0-2-.19l-.48,0c-.52,0-1,0-1.55.09-12.35,1.24-22.16,17.24-22.16,36.73s9.81,35.5,22.17,36.74a13.13,13.13,0,0,0,1.54.09l.49,0a15.32,15.32,0,0,0,2-.19c11.9-2,21.19-17.63,21.19-36.62S858,84.05,846.13,82.09Z"/><path class="cls-2" d="M869.35,118.71c0,20.22-10.24,36.83-23.32,38.67l-.1,2.05c14.23-1.73,25.45-19.33,25.45-40.73S860.18,79.75,846,78l.09,2C859.12,81.88,869.35,98.49,869.35,118.71Z"/><path class="cls-2" d="M815.84,118.7c0,21.68,11.52,39.46,26,40.8l.1-2c-13.45-1.28-24.1-18.14-24.1-38.76S828.53,81.21,842,79.94l-.08-2C827.39,79.21,815.84,97,815.84,118.7Z"/><path class="cls-2" d="M846.05,80,846,78a19.58,19.58,0,0,0-2-.14l.08,2A17.52,17.52,0,0,1,846.05,80Z"/><path class="cls-2" d="M844,157.54l-.11,2a17.18,17.18,0,0,0,2-.15l.1-2.05A15.29,15.29,0,0,1,844,157.54Z"/><path class="cls-2" d="M843.61,79.85l.4,0-.08-2-.32,0c-.57,0-1.14,0-1.71.09l.08,2C842.52,79.89,843.07,79.85,843.61,79.85Z"/><path class="cls-2" d="M843.61,157.56c-.55,0-1.1,0-1.64-.09l-.1,2c.57.05,1.16.09,1.74.09h.28l.11-2Z"/><path class="cls-2" d="M867.32,118.7c0,19-9.29,34.66-21.19,36.62l-.1,2.06c13.08-1.84,23.32-18.45,23.32-38.67S859.12,81.88,846.05,80l.08,2.06C858,84.05,867.32,99.72,867.32,118.7Z"/><path class="cls-2" d="M819.9,118.7c0-19.49,9.81-35.49,22.16-36.73l-.08-2c-13.45,1.27-24.11,18.13-24.11,38.77s10.65,37.48,24.1,38.76l.1-2C829.71,154.2,819.9,138.21,819.9,118.7Z"/><path class="cls-2" d="M844.1,155.51l-.1,2a15.29,15.29,0,0,0,2-.16l.1-2.06A15.32,15.32,0,0,1,844.1,155.51Z"/><path class="cls-2" d="M846.13,82.09,846.05,80a17.52,17.52,0,0,0-2-.16l.08,2A15.31,15.31,0,0,1,846.13,82.09Z"/><path class="cls-2" d="M844,157.54l.1-2-.49,0a13.13,13.13,0,0,1-1.54-.09l-.1,2c.54.05,1.09.09,1.64.09Z"/><path class="cls-2" d="M843.61,81.88l.48,0-.08-2-.4,0c-.54,0-1.09,0-1.63.09l.08,2C842.58,81.92,843.09,81.88,843.61,81.88Z"/><polygon class="cls-5" points="765 230.69 768.17 230.66 765 230.27 765 230.69"/><polygon class="cls-5" points="745.47 231.54 746.06 231.5 746.06 231.5 745.47 231.54"/><polygon class="cls-5" points="773.91 232.63 773.91 232.63 766.92 232.69 773.91 232.63"/><polygon class="cls-2" points="768.17 230.66 765 230.69 765 232.71 766.92 232.69 773.91 232.63 772.81 231.23 768.17 230.66"/><polygon class="cls-2" points="759.75 6.61 759.2 6.69 756.38 8.45 765 8.69 765 6.73 760.29 6.63 746.38 6.15 732.47 4.54 746.38 6.15 759.75 6.61"/><polygon class="cls-1" points="127.39 226.15 118.21 215.69 107 207.84 97.91 197.47 93.19 184.47 89.79 171.33 86.24 158.44 82.56 145.52 81.08 132.15 78.15 118.71 77.49 104.98 81.26 91.68 83.56 78.3 89.03 65.82 93.89 53.27 99.74 41.09 107.76 30.2 118.34 21.86 128.88 13.92 136 9.47 136 7.5 134.38 7.57 120.62 9.38 106.3 8.55 92.55 9.03 78.5 7.97 77 8.06 77 230.93 78.76 231.15 92.39 231.03 106.09 229.66 120.17 229.67 134 229.28 136 229.11 136 228.37 127.39 226.15"/><polygon class="cls-1" points="139.41 7.34 136 7.5 136 9.47 139.41 7.34"/><polygon class="cls-1" points="136 229.11 138.16 228.93 136 228.37 136 229.11"/><polygon class="cls-1" points="737.09 21.86 726.51 30.2 718.49 41.09 712.64 53.27 707.78 65.82 702.31 78.3 700.01 91.68 696.24 104.98 696.9 118.71 699.83 132.15 701.32 145.52 704.99 158.44 708.54 171.33 711.94 184.47 716.66 197.47 725.75 207.84 736.96 215.69 746.14 226.15 759.5 229.59 765 230.27 765 104.75 765 8.69 756.38 8.45 747.63 13.92 737.09 21.86"/><polygon class="cls-2" points="148.22 4.91 152.75 4.78 154.87 4.72 162.13 4.51 176.06 4.79 189.99 5.62 199.35 5.78 203.91 5.85 217.83 6.58 231.75 4.97 245.51 4.82 245.67 4.82 245.67 4.82 252.63 5.52 259.59 6.23 273.49 7.35 287.41 5.18 300.9 5.6 301.31 5.62 315.23 5.33 329.15 5.6 343.07 6.42 356.98 5.91 370.9 5.95 384.81 5.88 398 4.23 398.73 4.14 398.73 4.14 412.65 7.33 421.85 6.92 426.56 6.71 431.19 6.01 440.47 4.6 454.39 6.5 468.29 4.07 482.2 4.46 496.12 5.22 510.03 5.38 523.71 4.68 523.93 4.67 523.93 4.67 537.84 6.69 551.75 5.12 551.84 5.12 565.66 4.93 579.57 6.46 593.47 5.05 593.47 5.05 593.98 5.07 607.37 5.57 621.27 6 635.18 5.23 636.47 5.12 649.09 4.05 662.99 7.33 668.64 6.08 676.88 4.26 690.78 6.9 704.67 5.61 704.67 5.61 704.67 5.61 705.24 5.65 718.57 6.5 732.47 4.54 746.38 6.15 760.29 6.63 765 6.73 765 4.66 746.62 4.13 732.45 2.5 718.49 4.47 704.49 3.59 690.87 4.85 676.86 2.19 663.01 5.25 649.24 2 635.07 3.21 621.33 3.97 593.26 3.03 579.58 4.42 565.63 2.9 551.52 3.1 537.87 4.64 523.83 2.64 510.06 3.35 496.23 3.19 482.26 2.43 468.14 2.04 454.35 4.45 440.46 2.55 426.46 4.68 412.83 5.3 398.84 2.08 384.81 3.86 370.91 3.92 356.91 3.89 343.19 4.4 329.19 3.57 315.19 3.3 301.37 3.58 287.1 3.18 273.41 5.31 259.79 4.21 245.64 2.79 231.52 2.96 217.94 4.55 203.95 3.82 190.11 3.59 176.1 2.76 162.07 2.48 148.13 2.88 136 3.44 136 5.46 148.22 4.91"/><polygon class="cls-2" points="134.06 231.3 120.17 231.7 106.29 231.68 92.4 233.06 78.51 233.16 77 232.97 77 235 78.53 235.19 92.6 235.07 106.29 233.71 120.23 233.73 134.23 233.32 136 233.18 136 231.14 134.06 231.3"/><polygon class="cls-2" points="78.51 5.93 92.48 7 106.42 6.53 120.36 7.37 134.29 5.54 136 5.46 136 3.44 134.03 3.53 120.48 5.34 106.36 4.5 92.63 4.98 78.52 3.9 77 4 77 6.03 78.51 5.93"/><polygon class="cls-2" points="759.99 232.76 746.06 231.5 745.47 231.54 732.13 232.45 718.21 232.22 704.29 232.88 690.37 231.53 676.46 231.65 662.54 232.46 648.64 232.65 639.35 232.65 634.72 232.66 620.82 232.68 620.82 232.68 606.89 232.26 593.28 232.41 592.98 232.41 592.48 232.44 579.06 233.16 565.14 232.7 551.22 230.1 537.31 230.16 523.39 231.07 509.48 231.95 509.48 231.95 508.17 231.79 495.57 230.33 481.65 231.7 467.74 232.55 467.74 232.55 467.74 232.55 467.14 232.53 453.83 231.93 439.92 231.2 426 230.78 412.09 232.23 398.19 232.41 396.66 232.5 384.29 233.18 370.38 233.25 365.71 233.15 356.46 232.96 342.56 233.2 328.66 230.09 314.76 232.87 314.76 232.87 300.86 230.18 286.94 231.48 280.11 231.56 273.04 231.65 260.23 232.96 259.13 233.08 259.13 233.08 245.24 231.72 232.64 231.04 231.35 230.97 217.46 232.91 217.46 232.91 203.56 232.27 189.65 231.45 179.93 232.79 175.74 233.37 162.64 232.95 161.84 232.93 147.94 230.14 136 231.14 136 233.18 147.83 232.18 161.77 234.96 176.01 235.37 189.53 233.48 217.74 234.92 231.24 232.99 245.04 233.74 259.34 235.09 273.06 233.67 287.13 233.5 300.76 232.23 314.76 234.94 328.63 232.16 342.35 235.23 356.42 234.99 370.38 235.28 384.4 235.2 398.22 234.44 412.3 234.24 425.94 232.81 467.86 234.58 481.85 233.72 495.55 232.37 509.61 233.97 537.32 232.19 550.85 232.1 565.08 234.73 579.17 235.19 593 234.44 606.83 234.28 620.82 234.71 662.66 234.49 676.48 233.68 690.17 233.55 704.39 234.91 718.18 234.25 732.27 234.47 745.88 233.52 760.01 234.79 765 234.73 765 232.71 759.99 232.76"/><polygon class="cls-2" points="245.51 4.82 231.75 4.97 217.83 6.58 231.75 4.97 245.51 4.82"/><polygon class="cls-2" points="217.83 6.58 203.91 5.85 199.35 5.78 203.91 5.85 217.83 6.58"/><polygon class="cls-2" points="301.31 5.62 300.9 5.6 301.31 5.62 301.31 5.62"/><polygon class="cls-2" points="431.19 6.01 426.56 6.71 421.85 6.92 426.56 6.71 431.19 6.01"/><polygon class="cls-2" points="139.41 7.34 140.45 6.69 152.75 4.78 148.22 4.91 136 5.46 136 7.5 139.41 7.34"/><polygon class="cls-2" points="152.27 231.01 147.94 230.14 146.31 230.28 140.75 229.59 138.16 228.93 136 229.11 136 231.14 147.94 230.14 161.84 232.93 162.64 232.95 161.84 232.93 152.27 231.01"/><polygon class="cls-2" points="704.67 5.61 704.67 5.61 705.24 5.65 704.67 5.61"/><polygon class="cls-2" points="179.93 232.79 189.65 231.45 203.56 232.27 189.65 231.45 179.93 232.79"/><polygon class="cls-2" points="78.5 7.97 92.55 9.03 106.3 8.55 120.62 9.38 134.38 7.57 136 7.5 136 5.46 134.29 5.54 120.36 7.37 106.42 6.53 92.48 7 78.51 5.93 77 6.03 77 8.06 78.5 7.97"/><polygon class="cls-2" points="134 229.28 120.17 229.67 106.09 229.66 92.39 231.03 78.76 231.15 77 230.93 77 232.97 78.51 233.16 92.4 233.06 106.29 231.68 120.17 231.7 134.06 231.3 136 231.14 136 229.11 134 229.28"/><polygon class="cls-2" points="551.75 5.12 551.84 5.12 551.75 5.12 537.84 6.69 537.84 6.69 551.75 5.12"/><polygon class="cls-2" points="231.35 230.97 232.64 231.04 231.35 230.97 231.35 230.97"/><polygon class="cls-2" points="245.67 4.82 245.67 4.82 252.63 5.52 245.67 4.82"/><polygon class="cls-2" points="662.99 7.33 668.64 6.08 662.99 7.33 649.09 4.05 636.47 5.12 649.09 4.05 662.99 7.33"/><polygon class="cls-2" points="259.13 233.08 260.23 232.96 259.13 233.08 259.13 233.08"/><polygon class="cls-2" points="439.92 231.2 426 230.78 412.09 232.23 398.19 232.41 396.66 232.5 398.19 232.41 412.09 232.23 426 230.78 439.92 231.2 453.83 231.93 467.14 232.53 453.83 231.92 439.92 231.2"/><polygon class="cls-2" points="342.56 233.2 328.66 230.09 328.66 230.09 342.56 233.2 356.46 232.96 365.71 233.15 356.46 232.96 342.56 233.2"/><polygon class="cls-2" points="565.14 232.7 551.22 230.1 537.31 230.16 523.39 231.07 509.48 231.95 523.39 231.07 537.31 230.16 551.22 230.1 565.14 232.7 579.06 233.16 592.48 232.44 579.06 233.16 565.14 232.7"/><polygon class="cls-2" points="481.65 231.7 467.74 232.55 467.74 232.55 481.65 231.7 495.57 230.33 508.17 231.79 495.57 230.33 481.65 231.7"/><polygon class="cls-2" points="718.21 232.22 704.29 232.88 690.37 231.53 676.46 231.65 662.54 232.46 648.64 232.65 639.35 232.65 648.64 232.65 662.54 232.46 676.46 231.65 690.37 231.53 704.29 232.88 718.21 232.22 732.13 232.45 745.47 231.54 732.13 232.45 718.21 232.22"/><polygon class="cls-2" points="286.94 231.48 280.11 231.56 286.94 231.48 300.86 230.18 314.76 232.87 300.86 230.18 286.94 231.48"/><polygon class="cls-2" points="593.28 232.41 606.89 232.26 620.82 232.68 620.82 232.68 606.89 232.26 593.28 232.41"/><path class="cls-6" d="M759.5,229.59l-13.36-3.44L737,215.68l-11.21-7.84-9.09-10.37-4.72-13-3.4-13.14L705,158.44l-3.67-12.92-1.49-13.37-2.92-13.44L696.24,105,700,91.68l2.3-13.38,5.47-12.48,4.86-12.55,5.85-12.18,8-10.89,10.58-8.34,10.54-7.94,8.75-5.47-10.06-.27L732.5,6.59,718.64,8.54l-14.1-.9-13.86,1.3L676.91,6.33,663,9.41l-14-3.31L635.35,7.25l-14,.77-28-.94L579.56,8.5,565.44,7l-13.66.2-14,1.58L523.64,6.68l-13.5.73-14-.16-14-.76L468.44,6.1l-14,2.45-13.93-1.9L426.86,8.71l-14.4.66L398.63,6.19,385.07,7.9,370.91,8,357,7.94l-13.84.51L329,7.62l-13.84-.26-13.84.28-14-.43L273.56,9.39,259.42,8.25l-14-1.41L231.78,7,218.06,8.59l-14.25-.71L190,7.65l-14-.84-13.85-.27-13.81.39-8.87.41L136,9.47l-7.12,4.45-10.54,7.94L107.76,30.2l-8,10.89L93.89,53.27,89,65.82,83.56,78.3l-2.3,13.38L77.49,105l.66,13.73,2.93,13.44,1.48,13.37,3.68,12.92,3.55,12.89,3.4,13.14,4.72,13L107,207.84l11.21,7.84,9.18,10.47,8.61,2.22,2.16.56,9.9-.83,14.18,2.84,13.56.4,13.58-1.89,28.17,1.43L231.07,229l14.28.74,14,1.36,13.5-1.43,14.09-.18,14-1.32,13.79,2.68L328.68,228l14.08,3.14,13.67-.23,14,.29,13.86-.07,13.8-.76,14-.19,13.72-1.44,14.19.42,27.85,1.35,13.7-.85,14.06-1.39,14.12,1.64,27.47-1.79,14-.06,14.29,2.63,13.62.42,13.74-.74,14-.16,14,.42,41.63-.22,13.83-.81,14-.12,14.14,1.36,13.62-.66,14.06.22,13.76-.95,14.24,1.27,4.83-.05v-.42Zm-606.75-22,1.31-.2.81.14Z"/><polygon class="cls-5" points="593.47 5.05 579.57 6.46 593.47 5.05 593.47 5.05"/><polygon class="cls-5" points="467.74 232.55 467.74 232.55 467.14 232.53 467.74 232.55"/><polygon class="cls-5" points="509.48 231.95 509.48 231.95 508.17 231.79 509.48 231.95"/><polygon class="cls-5" points="260.23 232.96 273.04 231.65 280.11 231.56 273.04 231.65 260.23 232.96"/><polygon class="cls-5" points="421.85 6.92 412.65 7.33 398.73 4.14 398.73 4.14 412.65 7.33 421.85 6.92"/><polygon class="cls-5" points="176.06 4.79 189.99 5.62 199.35 5.78 189.99 5.62 176.06 4.79 162.13 4.51 154.87 4.72 152.75 4.78 162.13 4.51 176.06 4.79"/><polygon class="cls-5" points="329.15 5.6 343.07 6.42 356.98 5.91 370.9 5.95 384.81 5.88 398 4.23 384.81 5.88 370.9 5.95 356.98 5.91 343.07 6.42 329.15 5.6 315.23 5.33 301.31 5.62 315.23 5.33 329.15 5.6"/><polygon class="cls-5" points="592.48 232.44 592.98 232.41 593.28 232.41 592.98 232.41 592.48 232.44"/><polygon class="cls-5" points="370.38 233.25 365.71 233.15 370.38 233.25 384.29 233.18 396.66 232.5 384.29 233.18 370.38 233.25"/><polygon class="cls-5" points="273.49 7.35 287.41 5.18 300.9 5.6 287.41 5.18 273.49 7.35 259.59 6.23 252.63 5.52 259.59 6.23 273.49 7.35"/><polygon class="cls-5" points="162.64 232.95 175.74 233.37 179.93 232.79 175.74 233.37 162.64 232.95"/><polygon class="cls-5" points="232.64 231.04 245.24 231.72 259.13 233.08 245.24 231.72 232.64 231.04"/><polygon class="cls-5" points="217.46 232.91 217.46 232.91 231.35 230.97 231.35 230.97 217.46 232.91"/><polygon class="cls-5" points="314.76 232.87 328.66 230.09 314.76 232.87 314.76 232.87"/><polygon class="cls-5" points="454.39 6.5 468.29 4.07 482.2 4.46 496.12 5.22 510.03 5.38 523.71 4.68 510.03 5.38 496.12 5.22 482.2 4.46 468.29 4.07 454.39 6.5 440.47 4.6 431.19 6.01 440.47 4.6 454.39 6.5"/><polygon class="cls-5" points="690.78 6.9 704.67 5.61 704.67 5.61 690.78 6.9 676.88 4.26 668.64 6.08 676.88 4.27 690.78 6.9"/><polygon class="cls-5" points="732.47 4.54 718.57 6.5 705.24 5.65 718.57 6.5 732.47 4.54"/><polygon class="cls-5" points="621.27 6 635.18 5.23 636.47 5.12 635.18 5.23 621.27 6 607.37 5.57 593.98 5.07 607.37 5.57 621.27 6"/><polygon class="cls-5" points="537.84 6.69 523.93 4.67 523.93 4.67 537.84 6.69 537.84 6.69"/><polygon class="cls-5" points="620.82 232.68 634.72 232.66 639.35 232.65 634.72 232.66 620.82 232.68"/><polygon class="cls-5" points="579.57 6.46 565.66 4.93 551.84 5.12 565.66 4.93 579.57 6.46"/><polygon class="cls-2" points="760.17 230.74 745.93 229.47 732.17 230.42 718.11 230.19 704.49 230.87 690.35 229.5 676.34 229.63 662.51 230.43 620.88 230.65 606.87 230.23 592.87 230.39 579.13 231.13 565.51 230.71 551.22 228.08 537.18 228.14 509.71 229.93 495.59 228.29 481.53 229.68 467.83 230.53 439.98 229.18 425.79 228.76 412.07 230.19 398.08 230.39 384.28 231.15 370.42 231.22 356.43 230.93 342.76 231.16 328.68 228.02 314.75 230.81 300.96 228.13 286.92 229.46 272.83 229.63 259.33 231.06 245.35 229.7 231.07 228.96 217.55 230.88 189.38 229.45 175.8 231.34 162.24 230.94 148.06 228.1 138.16 228.93 140.75 229.59 146.31 230.28 147.94 230.14 152.27 231.01 161.84 232.93 162.64 232.95 175.74 233.37 179.93 232.79 189.65 231.45 203.56 232.27 217.46 232.91 231.35 230.97 231.35 230.97 231.35 230.97 232.64 231.04 245.24 231.72 259.13 233.08 260.23 232.96 273.04 231.65 280.11 231.56 286.94 231.48 300.86 230.18 314.76 232.87 328.66 230.09 328.66 230.09 342.56 233.2 356.46 232.96 365.71 233.15 370.38 233.25 384.29 233.18 396.66 232.5 398.19 232.41 412.09 232.23 426 230.78 439.92 231.2 453.83 231.92 467.14 232.53 467.74 232.55 481.65 231.7 495.57 230.33 508.17 231.79 509.48 231.95 523.39 231.07 537.31 230.16 551.22 230.1 565.14 232.7 579.06 233.16 592.48 232.44 592.98 232.41 593.28 232.41 606.89 232.26 620.82 232.68 634.72 232.66 639.35 232.65 648.64 232.65 662.54 232.46 676.46 231.65 690.37 231.53 704.29 232.88 718.21 232.22 732.13 232.45 745.47 231.54 746.06 231.5 746.06 231.5 746.06 231.5 759.99 232.76 765 232.71 765 230.69 760.17 230.74"/><polygon class="cls-2" points="139.41 7.34 148.28 6.93 162.09 6.54 175.94 6.81 189.96 7.65 203.81 7.88 218.06 8.59 231.78 7 245.46 6.84 259.42 8.25 273.56 9.39 287.34 7.21 301.35 7.64 315.19 7.36 329.03 7.62 343.14 8.45 356.98 7.94 370.91 7.98 385.07 7.9 398.63 6.19 412.46 9.37 426.86 8.71 440.49 6.65 454.42 8.55 468.44 6.1 482.09 6.49 496.1 7.25 510.14 7.41 523.64 6.67 537.81 8.73 551.78 7.15 565.44 6.95 579.56 8.5 593.39 7.08 621.38 8.02 635.35 7.25 648.94 6.09 662.97 9.4 676.91 6.33 690.68 8.94 704.54 7.64 718.64 8.54 732.5 6.59 746.32 8.18 756.38 8.45 759.2 6.69 759.75 6.61 746.38 6.15 732.47 4.54 718.57 6.5 705.24 5.65 704.67 5.61 690.78 6.9 676.88 4.27 668.64 6.08 662.99 7.33 649.09 4.05 636.47 5.12 635.18 5.23 621.27 6 607.37 5.57 593.98 5.07 593.47 5.05 579.57 6.46 565.66 4.93 551.84 5.12 551.75 5.12 537.84 6.69 537.84 6.69 537.84 6.69 523.93 4.67 523.71 4.68 510.03 5.38 496.12 5.22 482.2 4.46 468.29 4.07 454.39 6.5 440.47 4.6 431.19 6.01 426.56 6.71 421.85 6.92 412.65 7.33 398.73 4.14 398 4.23 384.81 5.88 370.9 5.95 356.98 5.91 343.07 6.42 329.15 5.6 315.23 5.33 301.31 5.62 301.31 5.62 300.9 5.6 287.41 5.18 273.49 7.35 259.59 6.23 252.63 5.52 245.67 4.82 245.51 4.82 231.75 4.97 217.83 6.58 203.91 5.85 199.35 5.78 189.99 5.62 176.06 4.79 162.13 4.51 152.75 4.78 140.45 6.69 139.41 7.34"/><polygon class="cls-5" points="152.75 207.62 154.87 207.56 154.06 207.42 152.75 207.62"/></svg>