<svg id="レイヤー_1" data-name="レイヤー 1" xmlns="http://www.w3.org/2000/svg" xmlns:xlink="http://www.w3.org/1999/xlink" viewBox="0 0 235 921"><defs><style>.cls-1{fill:#f0e6dd;}.cls-2{fill:#231815;}.cls-3{fill:#fffdfb;}.cls-4{fill:#9e9e9f;}.cls-5{fill:#cd7750;}.cls-6{fill:url(#名称未設定グラデーション_39);}</style><linearGradient id="名称未設定グラデーション_39" x1="-265.51" y1="461.72" x2="422" y2="461.72" gradientTransform="translate(-343.8 579.57) rotate(-90)" gradientUnits="userSpaceOnUse"><stop offset="0" stop-color="red"/><stop offset="0.3" stop-color="#ff0"/><stop offset="0.57" stop-color="#39b54a"/><stop offset="0.8" stop-color="blue"/><stop offset="1" stop-color="#662d91"/></linearGradient></defs><title>chikuwa_sp</title><polygon class="cls-1" points="8.02 857.16 13.12 869.14 21.7 879.26 41.81 896.48 53.23 902.99 65.62 907.39 77.92 913.17 91.14 914.86 104.45 917.74 117.89 917.63 130.97 915.1 144.89 914.84 157.85 912.94 170.16 907.69 183.48 904.53 194.06 896.4 205.28 888.7 214.68 879.87 220.82 868.25 228.72 857.12 230.13 845.57 7.26 845.57 8.02 857.16"/><polygon class="cls-2" points="230.67 857.87 222.61 869.19 216.32 881.12 206.42 890.37 195.29 898.01 184.37 906.4 170.96 909.56 158.4 914.91 144.93 916.87 131.35 917.1 117.91 919.66 104.25 919.77 90.88 916.87 77.34 915.14 64.94 909.3 52.22 904.75 40.5 898.03 30.26 889.34 20.16 880.57 11.38 870.22 6.02 857.64 5.23 845.57 3.2 845.57 4 857.77 9.51 871.02 18.83 882.1 39.49 899.79 51.54 906.66 64.07 911.14 76.48 916.97 90.45 918.86 104.03 921.8 118.28 921.65 131.38 919.13 145.22 918.88 158.69 916.91 171.42 911.53 184.84 908.38 196.44 899.68 207.81 891.85 217.7 882.6 224.27 870.37 232.63 858.63 234.2 845.57 232.17 845.57 230.67 857.87"/><polygon class="cls-2" points="228.72 857.12 220.82 868.25 214.68 879.87 205.28 888.7 194.06 896.4 183.48 904.53 170.16 907.69 157.85 912.94 144.89 914.84 130.97 915.1 117.89 917.63 104.45 917.74 91.14 914.86 77.92 913.17 65.62 907.39 53.23 902.99 41.81 896.48 21.7 879.26 13.12 869.14 8.02 857.16 7.26 845.57 5.23 845.57 6.02 857.64 11.38 870.22 20.16 880.57 30.26 889.34 40.5 898.03 52.22 904.75 64.94 909.3 77.34 915.14 90.88 916.87 104.25 919.77 117.91 919.66 131.35 917.1 144.93 916.87 158.4 914.91 170.96 909.56 184.37 906.4 195.29 898.01 206.42 890.37 216.32 881.12 222.61 869.19 230.67 857.87 232.17 845.57 230.13 845.57 228.72 857.12"/><polygon class="cls-1" points="90.33 153.71 76.68 151.31 64.2 145.85 51.74 141.02 39.41 135.1 27.8 126.51 19.46 115.93 11.5 105.35 6.96 97.92 5.43 106.75 7.63 120.57 6.07 134.46 8.15 148.08 7.89 157.57 103.95 157.57 90.33 153.71"/><polygon class="cls-1" points="216.41 116.17 208.37 127.54 197.37 137.01 184.37 141.73 158.18 148.73 145.27 152.4 131.57 153.96 118.33 156.84 103.95 157.57 229.47 157.57 229.86 154.4 229.8 148.69 227.72 134.77 229.31 120.58 228.38 107.01 228.16 102.85 227.16 106.74 216.41 116.17"/><polygon class="cls-2" points="6.15 148.39 4.02 134.5 5.58 120.62 3.38 106.73 5.36 95.29 3.89 92.88 3.72 91.82 3.75 92.71 1.32 106.72 3.53 120.67 1.97 134.54 4.12 148.34 3.85 157.57 5.93 157.57 6.15 148.39"/><polygon class="cls-2" points="230.81 92.52 229.84 96.29 230.4 106.87 231.33 120.81 229.76 134.74 231.83 148.66 231.83 148.66 231.89 155.65 231.91 157.57 233.93 157.57 233.83 148.37 231.81 134.7 233.35 120.67 231.67 93.17 233.76 76.28 232.34 76.33 232.45 78.87 230.81 92.52"/><polygon class="cls-2" points="8.15 148.08 6.07 134.46 7.63 120.57 5.43 106.75 6.96 97.92 5.36 95.29 3.38 106.73 5.58 120.62 4.02 134.5 6.15 148.39 5.93 157.57 7.89 157.57 8.15 148.08"/><polygon class="cls-2" points="230.7 176.51 230.7 176.51 231.96 162.58 231.91 157.57 231.96 162.58 230.7 176.51"/><polygon class="cls-2" points="228.38 107.01 229.31 120.58 227.72 134.77 229.8 148.69 229.86 154.4 230.43 149.76 231.83 148.66 229.76 134.74 231.33 120.81 230.4 106.87 229.84 96.29 228.16 102.85 228.38 107.01"/><path class="cls-3" d="M33.17,76.4l14.3-.86L61.57,78l13.85-1.3,1.76-.07c1.76-14.22,19.35-25.42,40.72-25.42s39,11.22,40.73,25.45l1.82.09,14.07.45,14-.57,14-1.12L217,76.93l11.31-.44L227.83,66l-7.09-11-7.47-10.77-8.83-9.65-10.35-8.06-11.1-7L170.37,15.2,158.1,9.1,144.79,8l-13.31-2.3L118,7.25l-13.47.47-13.39,1-13,2.09L65.88,16,53.36,20.54,42.42,27.92,29.93,33.31,22.47,44.15l-8,10.7L8.08,66.11l-2,11.24L19,76.77Z"/><path class="cls-3" d="M202.47,79.53l-13.73,1.13-14.2.57-14.26-.44-1.58-.08c-1.34,14.5-19.12,26-40.8,26S78.41,95.19,77.11,80.67l-1.42,0L61.41,82.07,47.24,79.61l-13.89.85-14.23.36-11.67.53.32,10.09.06.4,7,11.22,7.84,10.4,8.14,10.32,10.67,7.86,11.86,5.66,12.4,4.8,12.33,5.4,13.15,2.26,13.18,3.73,13.39-.66L130.92,150l13.57-1.52,25.5-7.17,13.18-3.41,12.45-4.53,9.89-8.68,8-11.37,10-8.76,3.29-12.76,1.36-11.21L216.87,81Z"/><path class="cls-3" d="M33.22,78.43l14.14-.85L61.49,80,75.62,78.7,77,78.64a19.58,19.58,0,0,1,.14-2l-1.76.07L61.57,78l-14.1-2.44-14.3.86L19,76.77l-12.86.58L5.83,79l.06.41,13.18-.59Z"/><path class="cls-3" d="M202.52,75.49l-14,1.12-14,.57-14.07-.45-1.82-.09a17.34,17.34,0,0,1,.15,2l1.57.08,14.11.45,14.12-.58,14.1-1.12L216.8,79l11.6-.44-.09-2L217,76.93Z"/><path class="cls-3" d="M202.68,77.51l-14.1,1.12-14.12.58-14.11-.45-1.57-.08c0,.09,0,.18,0,.28,0,.59,0,1.17-.09,1.75l1.58.08,14.26.44,14.2-.57,13.73-1.13L216.87,81l11.32-.43.22-1.84v-.2L216.8,79Z"/><path class="cls-3" d="M7.45,81.35l11.67-.53,14.23-.36,13.89-.85,14.17,2.46,14.28-1.35,1.42,0c0-.57-.09-1.14-.09-1.71,0-.11,0-.21,0-.32l-1.42.06L61.49,80,47.36,77.58l-14.14.85-14.15.37-13.18.59,1.88,12Z"/><polygon class="cls-2" points="117.75 3.2 104.29 3.67 90.64 4.69 77.27 6.85 64.4 12.23 51.74 16.81 40.48 24.37 27.25 30.05 19.17 41.79 11.12 52.63 4.38 64.4 1.72 78.94 3.72 91.82 3.26 77.48 4.04 77.44 6.14 65.41 12.88 53.64 20.8 43 28.59 31.68 41.28 26.23 52.43 18.71 65.09 14.14 77.59 8.85 90.97 6.7 104.44 5.69 117.91 5.22 131.53 3.62 144.96 5.95 158.65 7.12 171.02 13.28 183.87 17.67 195.34 24.94 205.94 33.22 214.93 43.09 222.45 53.92 229.83 65.38 230.31 76.41 232.34 76.33 231.83 64.74 224.12 52.76 216.43 41.72 207.19 31.62 196.42 23.22 184.95 15.96 171.93 11.47 159.56 5.3 145.31 3.95 131.59 1.57 117.75 3.2"/><polygon class="cls-2" points="214.88 114.81 207.04 126.02 196.67 135.1 183.67 139.82 170.53 143.23 157.64 146.77 144.72 150.45 131.35 151.94 117.91 154.86 104.18 155.53 90.88 151.76 77.5 149.46 65.02 143.99 52.47 139.13 40.29 133.27 29.4 125.25 21.06 114.68 13.12 104.13 7.46 95.07 6.96 97.92 11.5 105.35 19.46 115.93 27.8 126.51 39.41 135.1 51.74 141.02 64.2 145.85 76.68 151.31 90.33 153.71 103.95 157.57 118.33 156.84 131.57 153.96 145.27 152.4 158.18 148.73 184.37 141.73 197.37 137.01 208.37 127.54 216.41 116.17 227.16 106.74 228.16 102.85 227.8 96.13 225.35 105.63 214.88 114.81"/><polygon class="cls-2" points="5.36 95.29 5.79 92.85 5.75 91.64 3.77 78.96 4.04 77.44 3.26 77.48 3.72 91.82 3.89 92.88 5.36 95.29"/><polygon class="cls-2" points="230.4 78.43 231.46 78.39 229.66 92.92 229.84 96.29 230.81 92.52 232.45 78.87 232.34 76.33 230.31 76.41 230.4 78.43"/><polygon class="cls-2" points="228.79 92.27 227.8 96.13 228.16 102.85 229.84 96.29 229.66 92.92 231.46 78.39 230.4 78.43 230.43 78.96 228.79 92.27"/><polygon class="cls-2" points="7.46 95.07 5.89 92.57 5.75 91.64 5.79 92.85 5.36 95.29 6.96 97.92 7.46 95.07"/><polygon class="cls-2" points="8.08 66.11 14.51 54.85 22.47 44.15 29.93 33.31 42.42 27.91 53.36 20.54 65.88 16.01 78.16 10.81 91.12 8.72 104.51 7.72 117.97 7.25 131.48 5.67 144.79 7.96 158.1 9.11 170.37 15.2 182.99 19.52 194.09 26.54 204.44 34.59 213.27 44.24 220.74 55.01 227.82 66.02 228.31 76.49 230.31 76.41 229.83 65.38 222.45 53.92 214.93 43.09 205.94 33.22 195.34 24.94 183.87 17.67 171.02 13.28 158.65 7.12 144.96 5.95 131.53 3.62 117.91 5.22 104.44 5.69 90.97 6.7 77.59 8.85 65.09 14.14 52.43 18.71 41.28 26.23 28.59 31.68 20.8 43 12.88 53.64 6.14 65.41 4.04 77.44 6.11 77.35 8.08 66.11"/><polygon class="cls-2" points="223.54 104.52 213.55 113.28 205.51 124.65 195.62 133.33 183.16 137.86 169.99 141.27 144.49 148.44 130.92 149.96 117.81 152.84 104.41 153.49 91.23 149.76 78.08 147.5 65.75 142.1 53.35 137.3 41.49 131.64 30.82 123.78 22.68 113.46 14.84 103.06 7.83 91.84 7.77 91.44 7.82 92.99 7.46 95.07 13.12 104.13 21.06 114.68 29.4 125.25 40.29 133.27 52.47 139.13 65.02 143.99 77.5 149.46 90.88 151.76 104.18 155.53 117.91 154.86 131.35 151.94 144.72 150.45 157.64 146.77 170.53 143.23 183.67 139.82 196.67 135.1 207.04 126.02 214.88 114.81 225.35 105.63 227.8 96.13 227.63 93.03 229.16 80.51 228.19 80.55 226.83 91.76 223.54 104.52"/><polygon class="cls-2" points="228.4 78.51 230.4 78.43 230.31 76.41 228.31 76.49 228.4 78.51"/><polygon class="cls-2" points="5.75 91.64 5.36 79.41 5.89 79.39 5.83 78.98 6.11 77.35 4.04 77.44 3.77 78.96 5.75 91.64"/><polygon class="cls-2" points="7.46 95.07 7.82 92.99 7.77 91.44 5.89 79.39 5.36 79.41 5.75 91.64 5.89 92.57 7.46 95.07"/><polygon class="cls-2" points="228.41 78.71 228.19 80.55 229.16 80.51 227.63 93.03 227.8 96.13 228.79 92.27 230.43 78.96 230.4 78.43 228.4 78.51 228.41 78.71"/><path class="cls-4" d="M81.29,76.44a15.63,15.63,0,0,0-.19,2c0,.16,0,.32,0,.48,0,.52,0,1,.09,1.55,1.24,12.35,17.24,22.16,36.73,22.16s35.5-9.81,36.74-22.17c.05-.51.09-1,.09-1.54,0-.16,0-.33,0-.49a15.32,15.32,0,0,0-.19-2c-2-11.89-17.63-21.19-36.62-21.19S83.24,64.55,81.29,76.44Z"/><path class="cls-2" d="M117.9,53.22c20.23,0,36.84,10.24,38.68,23.32l2,.1c-1.74-14.23-19.33-25.45-40.73-25.45s-39,11.2-40.72,25.42l2-.08C81.08,63.45,97.69,53.22,117.9,53.22Z"/><path class="cls-2" d="M117.9,106.73c21.68,0,39.46-11.52,40.8-26l-2-.11c-1.28,13.45-18.14,24.1-38.77,24.1S80.41,94,79.14,80.59l-2,.08C78.41,95.19,96.21,106.73,117.9,106.73Z"/><path class="cls-2" d="M79.23,76.53l-2,.08a19.58,19.58,0,0,0-.14,2l2-.08A17.18,17.18,0,0,1,79.23,76.53Z"/><path class="cls-2" d="M156.74,78.58l2,.1a17.34,17.34,0,0,0-.15-2l-2-.1A15.31,15.31,0,0,1,156.74,78.58Z"/><path class="cls-2" d="M79.05,79c0-.13,0-.27,0-.4l-2,.08c0,.11,0,.21,0,.32,0,.57,0,1.14.09,1.71l2-.08C79.09,80.05,79.05,79.51,79.05,79Z"/><path class="cls-2" d="M156.76,79c0,.55,0,1.1-.09,1.64l2,.11c.05-.58.09-1.16.09-1.75,0-.1,0-.19,0-.28l-2-.1C156.75,78.7,156.76,78.83,156.76,79Z"/><path class="cls-2" d="M117.9,55.25c19,0,34.66,9.3,36.62,21.19l2.06.1c-1.84-13.08-18.45-23.32-38.68-23.32S81.08,63.45,79.23,76.53l2.06-.09C83.24,64.55,98.92,55.25,117.9,55.25Z"/><path class="cls-2" d="M117.9,102.67c-19.49,0-35.49-9.81-36.73-22.16l-2,.08C80.41,94,97.27,104.7,117.9,104.7s37.49-10.65,38.77-24.1l-2-.1C153.4,92.86,137.4,102.67,117.9,102.67Z"/><path class="cls-2" d="M154.71,78.47l2,.11a15.31,15.31,0,0,0-.16-2l-2.06-.1A15.32,15.32,0,0,1,154.71,78.47Z"/><path class="cls-2" d="M81.29,76.44l-2.06.09a17.18,17.18,0,0,0-.16,2l2-.08A15.63,15.63,0,0,1,81.29,76.44Z"/><path class="cls-2" d="M156.74,78.58l-2-.11c0,.16,0,.33,0,.49,0,.52,0,1-.09,1.54l2,.1c.05-.54.09-1.09.09-1.64C156.76,78.83,156.75,78.7,156.74,78.58Z"/><path class="cls-2" d="M81.08,79c0-.16,0-.32,0-.48l-2,.08c0,.13,0,.27,0,.4,0,.55,0,1.09.09,1.63l2-.08C81.12,80,81.08,79.48,81.08,79Z"/><polygon class="cls-5" points="229.89 157.57 229.86 154.4 229.47 157.57 229.89 157.57"/><polygon class="cls-5" points="230.74 177.1 230.7 176.51 230.7 176.51 230.74 177.1"/><polygon class="cls-5" points="231.83 148.66 231.83 148.66 231.89 155.65 231.83 148.66"/><polygon class="cls-2" points="229.86 154.4 229.89 157.57 231.91 157.57 231.89 155.65 231.83 148.66 230.43 149.76 229.86 154.4"/><polygon class="cls-2" points="5.81 162.82 5.89 163.37 7.65 166.19 7.89 157.57 5.93 157.57 5.82 162.28 5.35 176.19 3.74 190.1 5.35 176.19 5.81 162.82"/><polygon class="cls-1" points="225.35 795.18 214.88 804.36 207.04 815.57 196.67 824.66 183.67 829.38 170.53 832.78 157.64 836.33 144.72 840.01 131.35 841.5 117.91 844.42 104.18 845.08 90.88 841.32 77.5 839.01 65.02 833.54 52.47 828.68 40.29 822.83 29.4 814.81 21.06 804.23 13.12 793.69 8.67 786.57 6.69 786.57 6.77 788.19 8.58 801.95 7.75 816.27 8.23 830.02 7.17 844.07 7.26 845.57 230.13 845.57 230.34 843.81 230.23 830.18 228.86 816.48 228.87 802.4 228.47 788.57 228.31 786.57 227.57 786.57 225.35 795.18"/><polygon class="cls-1" points="6.54 783.16 6.69 786.57 8.67 786.57 6.54 783.16"/><polygon class="cls-1" points="228.31 786.57 228.13 784.41 227.57 786.57 228.31 786.57"/><polygon class="cls-1" points="21.06 185.48 29.4 196.06 40.29 204.08 52.47 209.93 65.02 214.79 77.5 220.26 90.88 222.56 104.18 226.33 117.91 225.67 131.35 222.74 144.72 221.25 157.64 217.58 170.53 214.03 183.67 210.63 196.67 205.91 207.04 196.82 214.88 185.61 225.35 176.43 228.79 163.07 229.47 157.57 103.95 157.57 7.89 157.57 7.65 166.19 13.12 174.94 21.06 185.48"/><polygon class="cls-2" points="4.1 774.35 3.98 769.82 3.92 767.7 3.71 760.44 3.98 746.51 4.82 732.58 4.97 723.22 5.05 718.66 5.77 704.74 4.17 690.82 4.02 677.06 4.02 676.9 4.02 676.9 4.72 669.95 5.43 662.99 6.55 649.08 4.38 635.16 4.8 621.67 4.81 621.26 4.53 607.34 4.79 593.42 5.62 579.5 5.11 565.59 5.15 551.67 5.08 537.76 3.43 524.57 3.33 523.84 3.33 523.84 6.53 509.93 6.12 500.72 5.91 496.01 5.21 491.38 3.8 482.1 5.7 468.19 3.27 454.28 3.66 440.37 4.42 426.45 4.58 412.54 3.88 398.86 3.87 398.64 3.87 398.64 5.89 384.73 4.32 370.82 4.32 370.73 4.13 356.91 5.66 343 4.25 329.1 4.25 329.1 4.27 328.59 4.77 315.2 5.19 301.3 4.43 287.39 4.32 286.1 3.25 273.48 6.52 259.58 5.28 253.93 3.46 245.69 6.09 231.79 4.81 217.9 4.81 217.9 4.81 217.9 4.85 217.33 5.7 204 3.74 190.1 5.35 176.19 5.82 162.28 5.93 157.57 3.85 157.57 3.33 175.95 1.7 190.12 3.67 204.08 2.79 218.09 4.05 231.7 1.39 245.72 4.44 259.56 1.2 273.33 2.41 287.5 3.17 301.24 2.23 329.31 3.62 343 2.1 356.94 2.3 371.05 3.84 384.7 1.84 398.74 2.55 412.52 2.39 426.34 1.63 440.31 1.24 454.43 3.65 468.22 1.75 482.11 3.88 496.11 4.5 509.74 1.28 523.73 3.06 537.77 3.12 551.66 3.08 565.66 3.6 579.38 2.77 593.38 2.5 607.38 2.78 621.2 2.38 635.48 4.51 649.16 3.41 662.78 1.99 676.93 2.16 691.05 3.75 704.64 3.02 718.62 2.79 732.46 1.96 746.47 1.68 760.5 2.08 774.45 2.64 786.57 4.66 786.57 4.1 774.35"/><polygon class="cls-2" points="230.5 788.51 230.9 802.4 230.88 816.28 232.25 830.17 232.36 844.06 232.17 845.57 234.2 845.57 234.39 844.04 234.27 829.97 232.91 816.28 232.93 802.34 232.52 788.34 232.38 786.57 230.34 786.57 230.5 788.51"/><polygon class="cls-2" points="5.13 844.06 6.2 830.09 5.72 816.15 6.57 802.21 4.74 788.28 4.66 786.57 2.64 786.57 2.73 788.54 4.54 802.09 3.7 816.22 4.18 829.94 3.1 844.05 3.2 845.57 5.23 845.57 5.13 844.06"/><polygon class="cls-2" points="231.96 162.58 230.7 176.51 230.74 177.1 231.65 190.44 231.42 204.36 232.08 218.28 230.73 232.2 230.85 246.11 231.66 260.03 231.85 273.94 231.85 283.22 231.86 287.85 231.88 301.76 231.88 301.76 231.46 315.68 231.61 329.29 231.61 329.6 231.64 330.09 232.36 343.51 231.9 357.43 229.3 371.35 229.36 385.26 230.27 399.18 231.15 413.09 231.15 413.09 230.99 414.4 229.53 427 230.9 440.92 231.75 454.83 231.75 454.83 231.75 454.83 231.72 455.43 231.12 468.74 230.4 482.65 229.98 496.57 231.43 510.48 231.61 524.38 231.69 525.91 232.38 538.28 232.44 552.2 232.35 556.87 232.16 566.11 232.4 580.01 229.29 593.91 232.07 607.81 232.07 607.81 229.38 621.72 230.68 635.63 230.76 642.46 230.84 649.54 232.16 662.34 232.28 663.44 232.28 663.44 230.92 677.33 230.24 689.93 230.17 691.22 232.11 705.12 232.11 705.12 231.47 719.01 230.65 732.92 231.99 742.64 232.56 746.83 232.15 759.93 232.13 760.73 229.34 774.63 230.34 786.57 232.38 786.57 231.38 774.74 234.16 760.8 234.57 746.56 232.68 733.04 234.12 704.84 232.19 691.33 232.94 677.53 234.29 663.23 232.87 649.51 232.7 635.44 231.43 621.81 234.14 607.81 231.36 593.94 234.43 580.22 234.19 566.15 234.47 552.19 234.4 538.17 233.64 524.35 233.44 510.27 232 496.63 233.78 454.71 232.92 440.72 231.57 427.02 233.17 412.97 231.39 385.25 231.3 371.72 233.93 357.5 234.39 343.4 233.64 329.57 233.48 315.74 233.91 301.75 233.69 259.91 232.88 246.09 232.75 232.4 234.11 218.18 233.45 204.39 233.67 190.3 232.72 176.69 233.99 162.56 233.93 157.57 231.91 157.57 231.96 162.58"/><polygon class="cls-2" points="4.02 677.06 4.17 690.82 5.77 704.74 4.17 690.82 4.02 677.06"/><polygon class="cls-2" points="5.77 704.74 5.05 718.66 4.97 723.22 5.05 718.66 5.77 704.74"/><polygon class="cls-2" points="4.81 621.26 4.8 621.67 4.81 621.26 4.81 621.26"/><polygon class="cls-2" points="5.21 491.38 5.91 496.01 6.12 500.72 5.91 496.01 5.21 491.38"/><polygon class="cls-2" points="6.54 783.16 5.89 782.12 3.98 769.82 4.1 774.35 4.66 786.57 6.69 786.57 6.54 783.16"/><polygon class="cls-2" points="230.21 770.3 229.34 774.63 229.47 776.26 228.79 781.82 228.13 784.41 228.31 786.57 230.34 786.57 229.34 774.63 232.13 760.73 232.15 759.93 232.13 760.73 230.21 770.3"/><polygon class="cls-2" points="4.81 217.9 4.81 217.9 4.85 217.33 4.81 217.9"/><polygon class="cls-2" points="231.99 742.64 230.65 732.92 231.47 719.01 230.65 732.92 231.99 742.64"/><polygon class="cls-2" points="7.17 844.07 8.23 830.02 7.75 816.27 8.58 801.95 6.77 788.19 6.69 786.57 4.66 786.57 4.74 788.28 6.57 802.21 5.72 816.15 6.2 830.09 5.13 844.06 5.23 845.57 7.26 845.57 7.17 844.07"/><polygon class="cls-2" points="228.47 788.57 228.87 802.4 228.86 816.48 230.23 830.18 230.34 843.81 230.13 845.57 232.17 845.57 232.36 844.06 232.25 830.17 230.88 816.28 230.9 802.4 230.5 788.51 230.34 786.57 228.31 786.57 228.47 788.57"/><polygon class="cls-2" points="4.32 370.82 4.32 370.73 4.32 370.82 5.89 384.73 5.89 384.73 4.32 370.82"/><polygon class="cls-2" points="230.17 691.22 230.24 689.93 230.17 691.22 230.17 691.22"/><polygon class="cls-2" points="4.02 676.9 4.02 676.9 4.72 669.95 4.02 676.9"/><polygon class="cls-2" points="6.52 259.58 5.28 253.93 6.52 259.58 3.25 273.48 4.32 286.1 3.25 273.48 6.52 259.58"/><polygon class="cls-2" points="232.28 663.44 232.16 662.34 232.28 663.44 232.28 663.44"/><polygon class="cls-2" points="230.4 482.65 229.98 496.57 231.43 510.48 231.61 524.38 231.69 525.91 231.61 524.38 231.43 510.48 229.98 496.57 230.4 482.65 231.12 468.74 231.72 455.43 231.12 468.74 230.4 482.65"/><polygon class="cls-2" points="232.4 580.01 229.29 593.91 229.29 593.91 232.4 580.01 232.16 566.11 232.35 556.87 232.16 566.11 232.4 580.01"/><polygon class="cls-2" points="231.9 357.43 229.3 371.35 229.36 385.26 230.27 399.18 231.15 413.09 230.27 399.18 229.36 385.26 229.3 371.35 231.9 357.43 232.36 343.51 231.64 330.09 232.36 343.51 231.9 357.43"/><polygon class="cls-2" points="230.9 440.92 231.75 454.83 231.75 454.83 230.9 440.92 229.53 427 230.99 414.4 229.53 427 230.9 440.92"/><polygon class="cls-2" points="231.42 204.36 232.08 218.28 230.73 232.2 230.85 246.11 231.66 260.03 231.85 273.94 231.85 283.22 231.85 273.94 231.66 260.03 230.85 246.11 230.73 232.2 232.08 218.28 231.42 204.36 231.65 190.44 230.74 177.1 231.65 190.44 231.42 204.36"/><polygon class="cls-2" points="230.68 635.63 230.76 642.46 230.68 635.63 229.38 621.72 232.07 607.81 229.38 621.72 230.68 635.63"/><polygon class="cls-2" points="231.61 329.29 231.46 315.68 231.88 301.76 231.88 301.76 231.46 315.68 231.61 329.29"/><path class="cls-6" d="M228.79,163.07l-3.44,13.36-10.47,9.18L207,196.82l-10.37,9.09-13,4.72L170.53,214l-12.89,3.55-12.92,3.68-13.37,1.48-13.45,2.93-13.72.66-13.3-3.77-13.39-2.3L65,214.79l-12.55-4.86-12.18-5.85-10.89-8-8.34-10.58-7.94-10.54-5.47-8.75-.28,10.07L5.79,190.07l2,13.86L6.84,218l1.3,13.86L5.53,245.66,8.6,259.6l-3.31,14,1.16,13.59.77,14-.94,28L7.7,343,6.15,357.13l.2,13.66,1.58,14L5.87,398.93l.74,13.51-.16,14-.77,14L5.3,454.13l2.45,14-1.9,13.93,2.06,13.63.66,14.4L5.39,523.94,7.1,537.5l.08,14.16,0,13.93.51,13.84-.83,14.11-.26,13.84.28,13.84-.43,14L8.59,649,7.45,663.15,6,677.11,6.2,690.8l1.59,13.71-.71,14.25-.23,13.85-.84,14-.27,13.85.39,13.82.41,8.86,2.13,3.41,4.45,7.12,7.94,10.54,8.34,10.58,10.89,8,12.18,5.85L65,833.54,77.49,839l13.39,2.31,13.3,3.76,13.72-.66,13.45-2.93L144.72,840l12.92-3.68,12.89-3.55,13.14-3.4,13-4.72L207,815.57l7.84-11.21,10.47-9.18,2.22-8.61.56-2.16-.84-9.9,2.85-14.18.4-13.56-1.89-13.58L230.08,705l-1.92-13.52.74-14.28,1.35-14-1.42-13.5-.18-14.09-1.32-14L230,607.82l-2.78-13.93,3.14-14.08-.23-13.67.29-14-.07-13.85-.77-13.81-.19-14L228,496.78l.42-14.19,1.35-27.85-.85-13.7L227.49,427l1.64-14.13-1.79-27.47-.07-14,2.64-14.29.42-13.61-.75-13.75-.15-14,.42-14-.22-41.64-.81-13.83-.12-14,1.36-14.14-.67-13.62.23-14.06-1-13.75,1.27-14.25-.05-4.83h-.42Zm-22,606.75-.2-1.31.14-.81Z"/><polygon class="cls-5" points="4.25 329.1 5.66 343 4.25 329.1 4.25 329.1"/><polygon class="cls-5" points="231.75 454.83 231.75 454.83 231.72 455.43 231.75 454.83"/><polygon class="cls-5" points="231.15 413.09 231.15 413.09 230.99 414.4 231.15 413.09"/><polygon class="cls-5" points="232.16 662.34 230.84 649.54 230.76 642.46 230.84 649.54 232.16 662.34"/><polygon class="cls-5" points="6.12 500.72 6.53 509.93 3.33 523.84 3.33 523.84 6.53 509.93 6.12 500.72"/><polygon class="cls-5" points="3.98 746.51 4.82 732.58 4.97 723.22 4.82 732.58 3.98 746.51 3.71 760.44 3.92 767.7 3.98 769.82 3.71 760.44 3.98 746.51"/><polygon class="cls-5" points="4.79 593.42 5.62 579.5 5.11 565.59 5.15 551.67 5.08 537.76 3.43 524.57 5.08 537.76 5.15 551.67 5.11 565.59 5.62 579.5 4.79 593.42 4.53 607.34 4.81 621.26 4.53 607.34 4.79 593.42"/><polygon class="cls-5" points="231.64 330.09 231.61 329.6 231.61 329.29 231.61 329.6 231.64 330.09"/><polygon class="cls-5" points="232.44 552.2 232.35 556.87 232.44 552.2 232.38 538.28 231.69 525.91 232.38 538.28 232.44 552.2"/><polygon class="cls-5" points="6.55 649.08 4.38 635.16 4.8 621.67 4.38 635.16 6.55 649.08 5.43 662.99 4.72 669.95 5.43 662.99 6.55 649.08"/><polygon class="cls-5" points="232.15 759.93 232.56 746.83 231.99 742.64 232.56 746.83 232.15 759.93"/><polygon class="cls-5" points="230.24 689.93 230.92 677.33 232.28 663.44 230.92 677.33 230.24 689.93"/><polygon class="cls-5" points="232.11 705.12 232.11 705.12 230.17 691.22 230.17 691.22 232.11 705.12"/><polygon class="cls-5" points="232.07 607.81 229.29 593.91 232.07 607.81 232.07 607.81"/><polygon class="cls-5" points="5.7 468.19 3.27 454.28 3.66 440.37 4.42 426.45 4.58 412.54 3.88 398.86 4.58 412.54 4.42 426.45 3.66 440.37 3.27 454.28 5.7 468.19 3.8 482.1 5.21 491.38 3.8 482.1 5.7 468.19"/><polygon class="cls-5" points="6.09 231.79 4.81 217.9 4.81 217.9 6.09 231.79 3.46 245.69 5.28 253.93 3.46 245.69 6.09 231.79"/><polygon class="cls-5" points="3.74 190.1 5.7 204 4.85 217.33 5.7 204 3.74 190.1"/><polygon class="cls-5" points="5.19 301.3 4.43 287.39 4.32 286.1 4.43 287.39 5.19 301.3 4.77 315.2 4.27 328.59 4.77 315.2 5.19 301.3"/><polygon class="cls-5" points="5.89 384.73 3.87 398.64 3.87 398.64 5.89 384.73 5.89 384.73"/><polygon class="cls-5" points="231.88 301.76 231.86 287.85 231.85 283.22 231.86 287.85 231.88 301.76"/><polygon class="cls-5" points="5.66 343 4.13 356.91 4.32 370.73 4.13 356.91 5.66 343"/><polygon class="cls-2" points="229.94 162.4 228.67 176.65 229.62 190.4 229.39 204.46 230.06 218.08 228.7 232.22 228.82 246.23 229.63 260.06 229.85 301.69 229.43 315.7 229.59 329.7 230.33 343.44 229.91 357.06 227.28 371.36 227.34 385.39 229.13 412.86 227.49 426.99 228.88 441.04 229.73 454.74 228.38 482.59 227.96 496.78 229.39 510.5 229.59 524.49 230.34 538.29 230.42 552.15 230.13 566.14 230.36 579.81 227.22 593.89 230 607.82 227.33 621.61 228.65 635.65 228.83 649.74 230.25 663.24 228.9 677.22 228.16 691.5 230.08 705.02 228.65 733.2 230.53 746.77 230.14 760.33 227.29 774.51 228.13 784.41 228.79 781.82 229.47 776.26 229.34 774.63 230.21 770.3 232.13 760.73 232.15 759.93 232.56 746.83 231.99 742.64 230.65 732.92 231.47 719.01 232.11 705.12 230.17 691.22 230.17 691.22 230.17 691.22 230.24 689.93 230.92 677.33 232.28 663.44 232.16 662.34 230.84 649.54 230.76 642.46 230.68 635.63 229.38 621.72 232.07 607.81 229.29 593.91 229.29 593.91 232.4 580.01 232.16 566.11 232.35 556.87 232.44 552.2 232.38 538.28 231.69 525.91 231.61 524.38 231.43 510.48 229.98 496.57 230.4 482.65 231.12 468.74 231.72 455.43 231.75 454.83 230.9 440.92 229.53 427 230.99 414.4 231.15 413.09 230.27 399.18 229.36 385.26 229.3 371.35 231.9 357.43 232.36 343.51 231.64 330.09 231.61 329.6 231.61 329.29 231.46 315.68 231.88 301.76 231.86 287.85 231.85 283.22 231.85 273.94 231.66 260.03 230.85 246.11 230.73 232.2 232.08 218.28 231.42 204.36 231.65 190.44 230.74 177.1 230.7 176.51 230.7 176.51 230.7 176.51 231.96 162.58 231.91 157.57 229.89 157.57 229.94 162.4"/><polygon class="cls-2" points="6.54 783.16 6.13 774.29 5.74 760.48 6.01 746.63 6.84 732.62 7.08 718.76 7.79 704.51 6.2 690.79 6.04 677.11 7.45 663.15 8.59 649.01 6.41 635.23 6.84 621.22 6.56 607.38 6.82 593.54 7.65 579.43 7.14 565.6 7.18 551.66 7.1 537.5 5.39 523.94 8.57 510.11 7.91 495.71 5.85 482.08 7.75 468.15 5.3 454.13 5.68 440.48 6.45 426.47 6.61 412.44 5.87 398.93 7.93 384.76 6.35 370.79 6.15 357.13 7.7 343.01 6.28 329.18 7.22 301.19 6.45 287.22 5.29 273.63 8.6 259.6 5.53 245.66 8.14 231.89 6.84 218.03 7.74 203.93 5.79 190.07 7.37 176.25 7.65 166.19 5.89 163.37 5.81 162.82 5.35 176.19 3.74 190.1 5.7 204 4.85 217.33 4.81 217.9 6.09 231.79 3.46 245.69 5.28 253.93 6.52 259.58 3.25 273.48 4.32 286.1 4.43 287.39 5.19 301.3 4.77 315.2 4.27 328.59 4.25 329.1 5.66 343 4.13 356.91 4.32 370.73 4.32 370.82 5.89 384.73 5.89 384.73 5.89 384.73 3.87 398.64 3.88 398.86 4.58 412.54 4.42 426.45 3.66 440.37 3.27 454.28 5.7 468.19 3.8 482.1 5.21 491.38 5.91 496.01 6.12 500.72 6.53 509.93 3.33 523.84 3.43 524.57 5.08 537.76 5.15 551.67 5.11 565.59 5.62 579.5 4.79 593.42 4.53 607.34 4.81 621.26 4.81 621.26 4.8 621.67 4.38 635.16 6.55 649.08 5.43 662.99 4.72 669.95 4.02 676.9 4.02 677.06 4.17 690.82 5.77 704.74 5.05 718.66 4.97 723.22 4.82 732.58 3.98 746.51 3.71 760.44 3.98 769.82 5.89 782.12 6.54 783.16"/><polygon class="cls-5" points="206.82 769.82 206.76 767.7 206.62 768.51 206.82 769.82"/></svg>