<svg preserveAspectRatio="none" id="レイヤー_1" data-name="レイヤー 1" xmlns="http://www.w3.org/2000/svg" xmlns:xlink="http://www.w3.org/1999/xlink" viewBox="0 0 688 235"><defs><style>.cls-1{fill:#231815;}.cls-2{fill:#f0e6dd;}.cls-3{fill:url(#名称未設定グラデーション_39);}.cls-4{fill:#cd7750;}</style><linearGradient id="名称未設定グラデーション_39" x1="0.49" y1="118.72" x2="688" y2="118.72" gradientUnits="userSpaceOnUse"><stop offset="0" stop-color="red"/><stop offset="0.3" stop-color="#ff0"/><stop offset="0.57" stop-color="#39b54a"/><stop offset="0.8" stop-color="blue"/><stop offset="1" stop-color="#662d91"/></linearGradient></defs><title>chikuwa</title><polygon class="cls-1" points="682.75 6.61 682.2 6.69 679.38 8.45 688 8.69 688 6.73 683.29 6.63 669.38 6.15 655.47 4.54 669.38 6.15 682.75 6.61"/><polygon class="cls-2" points="50.39 226.15 41.21 215.69 30 207.84 20.91 197.47 16.19 184.47 12.79 171.33 9.24 158.44 5.57 145.52 4.08 132.15 1.15 118.71 0.49 104.98 4.26 91.68 6.56 78.3 12.03 65.82 16.89 53.27 22.74 41.09 30.76 30.2 41.34 21.86 51.88 13.92 59 9.47 59 7.5 57.38 7.57 43.62 9.38 29.3 8.55 15.55 9.03 1.5 7.97 0 8.06 0 230.93 1.76 231.15 15.39 231.03 29.09 229.66 43.17 229.67 57 229.28 59 229.11 59 228.37 50.39 226.15"/><polygon class="cls-2" points="62.41 7.34 59 7.5 59 9.47 62.41 7.34"/><polygon class="cls-2" points="59 229.11 61.16 228.93 59 228.37 59 229.11"/><polygon class="cls-2" points="660.09 21.86 649.51 30.2 641.49 41.09 635.64 53.27 630.78 65.82 625.31 78.3 623.01 91.68 619.24 104.98 619.9 118.71 622.83 132.15 624.32 145.52 627.99 158.44 631.54 171.33 634.94 184.47 639.66 197.47 648.75 207.84 659.96 215.69 669.14 226.15 682.5 229.59 688 230.27 688 104.75 688 8.69 679.38 8.45 670.63 13.92 660.09 21.86"/><polygon class="cls-1" points="71.22 4.91 75.75 4.78 77.87 4.72 85.13 4.51 99.06 4.79 112.99 5.62 122.35 5.78 126.91 5.85 140.83 6.58 154.75 4.97 168.51 4.82 168.67 4.82 168.67 4.82 175.63 5.52 182.59 6.23 196.49 7.35 210.41 5.18 223.9 5.6 224.31 5.62 238.23 5.33 252.15 5.6 266.07 6.42 279.98 5.91 293.9 5.95 307.81 5.88 321 4.23 321.73 4.14 321.73 4.14 335.65 7.33 344.85 6.92 349.56 6.71 354.19 6.01 363.47 4.6 377.39 6.5 391.29 4.07 405.2 4.46 419.12 5.22 433.03 5.38 446.71 4.68 446.93 4.67 446.93 4.67 460.84 6.69 474.75 5.12 474.84 5.12 488.66 4.93 502.57 6.46 516.47 5.05 516.47 5.05 516.98 5.07 530.37 5.57 544.27 6 558.18 5.23 559.47 5.12 572.09 4.05 585.99 7.33 591.64 6.08 599.88 4.26 613.78 6.9 627.67 5.61 627.67 5.61 627.67 5.61 628.24 5.65 641.57 6.5 655.47 4.54 669.38 6.15 683.29 6.63 688 6.73 688 4.66 669.62 4.13 655.45 2.5 641.49 4.47 627.49 3.59 613.87 4.85 599.86 2.19 586.01 5.25 572.24 2 558.07 3.21 544.33 3.97 516.26 3.03 502.57 4.42 488.63 2.9 474.52 3.1 460.87 4.64 446.83 2.64 433.06 3.35 419.23 3.19 405.26 2.43 391.14 2.04 377.35 4.45 363.46 2.55 349.46 4.68 335.83 5.3 321.84 2.08 307.81 3.86 293.91 3.92 279.91 3.89 266.19 4.4 252.19 3.57 238.19 3.3 224.37 3.58 210.09 3.18 196.41 5.31 182.79 4.21 168.64 2.79 154.52 2.96 140.94 4.55 126.95 3.82 113.11 3.59 99.1 2.76 85.08 2.48 71.13 2.88 59 3.44 59 5.46 71.22 4.91"/><polygon class="cls-1" points="57.06 231.3 43.17 231.7 29.29 231.68 15.4 233.06 1.51 233.16 0 232.97 0 235 1.53 235.19 15.6 235.07 29.29 233.71 43.23 233.73 57.23 233.32 59 233.18 59 231.14 57.06 231.3"/><polygon class="cls-1" points="1.51 5.93 15.48 7 29.43 6.53 43.36 7.37 57.29 5.54 59 5.46 59 3.44 57.03 3.53 43.48 5.34 29.36 4.5 15.63 4.98 1.52 3.9 0 4 0 6.03 1.51 5.93"/><polygon class="cls-1" points="682.99 232.76 669.06 231.5 668.47 231.54 655.13 232.45 641.21 232.22 627.29 232.88 613.37 231.53 599.46 231.65 585.54 232.46 571.64 232.65 562.35 232.65 557.72 232.66 543.82 232.68 543.82 232.68 529.89 232.26 516.28 232.41 515.98 232.41 515.48 232.44 502.06 233.16 488.14 232.7 474.22 230.1 460.31 230.16 446.39 231.07 432.48 231.95 432.48 231.95 431.17 231.79 418.57 230.33 404.65 231.7 390.74 232.55 390.74 232.55 390.74 232.55 390.14 232.53 376.83 231.93 362.92 231.2 349 230.78 335.09 232.23 321.19 232.41 319.66 232.5 307.29 233.18 293.38 233.25 288.71 233.15 279.46 232.96 265.56 233.2 251.66 230.09 237.76 232.87 237.76 232.87 223.86 230.18 209.94 231.48 203.11 231.56 196.03 231.65 183.23 232.96 182.13 233.08 182.13 233.08 168.24 231.72 155.64 231.04 154.35 230.97 140.46 232.91 140.46 232.91 126.56 232.27 112.65 231.45 102.93 232.79 98.74 233.37 85.64 232.95 84.84 232.93 70.94 230.14 59 231.14 59 233.18 70.83 232.18 84.77 234.96 99.02 235.37 112.53 233.48 140.74 234.92 154.24 232.99 168.04 233.74 182.34 235.09 196.06 233.67 210.13 233.5 223.76 232.23 237.76 234.94 251.63 232.16 265.35 235.23 279.42 234.99 293.38 235.28 307.4 235.2 321.22 234.44 335.3 234.24 348.94 232.81 390.86 234.58 404.85 233.72 418.55 232.37 432.61 233.97 460.32 232.19 473.85 232.1 488.07 234.73 502.17 235.19 516 234.44 529.83 234.28 543.82 234.71 585.66 234.49 599.48 233.68 613.17 233.55 627.39 234.91 641.18 234.25 655.27 234.47 668.88 233.52 683.01 234.79 688 234.73 688 232.71 682.99 232.76"/><polygon class="cls-1" points="168.51 4.82 154.75 4.97 140.83 6.58 154.75 4.97 168.51 4.82"/><polygon class="cls-1" points="140.83 6.58 126.91 5.85 122.35 5.78 126.91 5.85 140.83 6.58"/><polygon class="cls-1" points="224.31 5.62 223.9 5.6 224.31 5.62 224.31 5.62"/><polygon class="cls-1" points="354.19 6.01 349.56 6.71 344.85 6.92 349.56 6.71 354.19 6.01"/><polygon class="cls-1" points="62.41 7.34 63.45 6.69 75.75 4.78 71.22 4.91 59 5.46 59 7.5 62.41 7.34"/><polygon class="cls-1" points="75.27 231.01 70.94 230.14 69.31 230.28 63.75 229.59 61.16 228.93 59 229.11 59 231.14 70.94 230.14 84.84 232.93 85.64 232.95 84.84 232.93 75.27 231.01"/><polygon class="cls-1" points="627.67 5.61 627.67 5.61 628.24 5.65 627.67 5.61"/><polygon class="cls-1" points="102.93 232.79 112.65 231.45 126.56 232.27 112.65 231.45 102.93 232.79"/><polygon class="cls-1" points="1.5 7.97 15.55 9.03 29.3 8.55 43.62 9.38 57.38 7.57 59 7.5 59 5.46 57.29 5.54 43.36 7.37 29.43 6.53 15.48 7 1.51 5.93 0 6.03 0 8.06 1.5 7.97"/><polygon class="cls-1" points="57 229.28 43.17 229.67 29.09 229.66 15.39 231.03 1.76 231.15 0 230.93 0 232.97 1.51 233.16 15.4 233.06 29.29 231.68 43.17 231.7 57.06 231.3 59 231.14 59 229.11 57 229.28"/><polygon class="cls-1" points="474.75 5.12 474.84 5.12 474.75 5.12 460.84 6.69 460.84 6.69 474.75 5.12"/><polygon class="cls-1" points="154.35 230.97 155.64 231.04 154.35 230.97 154.35 230.97"/><polygon class="cls-1" points="168.67 4.82 168.67 4.82 175.63 5.52 168.67 4.82"/><polygon class="cls-1" points="585.99 7.33 591.64 6.08 585.99 7.33 572.09 4.05 559.47 5.12 572.09 4.05 585.99 7.33"/><polygon class="cls-1" points="182.13 233.08 183.23 232.96 182.13 233.08 182.13 233.08"/><polygon class="cls-1" points="362.92 231.2 349 230.78 335.09 232.23 321.19 232.41 319.66 232.5 321.19 232.41 335.09 232.23 349 230.78 362.92 231.2 376.83 231.93 390.14 232.53 376.83 231.92 362.92 231.2"/><polygon class="cls-1" points="265.56 233.2 251.66 230.09 251.66 230.09 265.56 233.2 279.46 232.96 288.71 233.15 279.46 232.96 265.56 233.2"/><polygon class="cls-1" points="488.14 232.7 474.22 230.1 460.31 230.16 446.39 231.07 432.48 231.95 446.39 231.07 460.31 230.16 474.22 230.1 488.14 232.7 502.06 233.16 515.48 232.44 502.06 233.16 488.14 232.7"/><polygon class="cls-1" points="404.65 231.7 390.74 232.55 390.74 232.55 404.65 231.7 418.57 230.33 431.17 231.79 418.57 230.33 404.65 231.7"/><polygon class="cls-1" points="641.21 232.22 627.29 232.88 613.37 231.53 599.46 231.65 585.54 232.46 571.64 232.65 562.35 232.65 571.64 232.65 585.54 232.46 599.46 231.65 613.37 231.53 627.29 232.88 641.21 232.22 655.13 232.45 668.47 231.54 655.13 232.45 641.21 232.22"/><polygon class="cls-1" points="209.94 231.48 203.11 231.56 209.94 231.48 223.86 230.18 237.76 232.87 223.86 230.18 209.94 231.48"/><polygon class="cls-1" points="516.28 232.41 529.89 232.26 543.82 232.68 543.82 232.68 529.89 232.26 516.28 232.41"/><path class="cls-3" d="M682.5,229.59l-13.36-3.44L660,215.68l-11.21-7.84-9.09-10.37-4.72-13-3.4-13.14L628,158.44l-3.67-12.92-1.49-13.37-2.92-13.44L619.24,105,623,91.68l2.3-13.38,5.47-12.48,4.86-12.55,5.85-12.18,8-10.89,10.58-8.34,10.54-7.94,8.75-5.47-10.06-.27L655.5,6.59,641.64,8.54l-14.1-.9-13.86,1.3L599.91,6.33,586,9.41l-14-3.31L558.35,7.25l-14,.77-28-.94L502.56,8.5,488.44,7l-13.66.2-14,1.58L446.64,6.68l-13.5.73-14-.16-14-.76L391.44,6.1l-14,2.45-13.93-1.9L349.86,8.71l-14.4.66L321.63,6.19,308.07,7.9,293.91,8,280,7.94l-13.84.51L252,7.62l-13.84-.26-13.84.28-14-.43L196.56,9.39,182.42,8.25l-14-1.41L154.78,7,141.06,8.59l-14.25-.71L113,7.65l-14-.84L85.09,6.54l-13.81.39-8.87.41L59,9.47l-7.12,4.45L41.34,21.86,30.76,30.2l-8,10.89L16.89,53.27,12,65.82,6.56,78.3,4.26,91.68.49,105l.66,13.73,2.93,13.44,1.48,13.37,3.68,12.92,3.55,12.89,3.4,13.14,4.72,13L30,207.84l11.21,7.84,9.18,10.47L59,228.37l2.16.56,9.9-.83,14.18,2.84,13.56.4,13.58-1.89,28.17,1.43L154.07,229l14.28.74,14,1.36,13.5-1.43,14.09-.18,14-1.32,13.79,2.68L251.68,228l14.08,3.14,13.67-.23,14,.29,13.86-.07,13.8-.76,14-.19,13.72-1.44,14.19.42,27.85,1.35,13.7-.85,14.06-1.39,14.12,1.64,27.47-1.79,14-.06,14.29,2.63,13.62.42,13.74-.74,14-.16,14,.42,41.63-.22,13.83-.81,14-.12,14.14,1.36,13.62-.66,14.06.22,13.76-.95,14.24,1.27,4.83-.05v-.42Zm-606.75-22,1.31-.2.81.14Z"/><polygon class="cls-4" points="516.47 5.05 502.57 6.46 516.47 5.05 516.47 5.05"/><polygon class="cls-4" points="390.74 232.55 390.74 232.55 390.14 232.53 390.74 232.55"/><polygon class="cls-4" points="432.48 231.95 432.48 231.95 431.17 231.79 432.48 231.95"/><polygon class="cls-4" points="183.23 232.96 196.03 231.65 203.11 231.56 196.03 231.65 183.23 232.96"/><polygon class="cls-4" points="344.85 6.92 335.65 7.33 321.73 4.14 321.73 4.14 335.65 7.33 344.85 6.92"/><polygon class="cls-4" points="99.06 4.79 112.99 5.62 122.35 5.78 112.99 5.62 99.06 4.79 85.13 4.51 77.87 4.72 75.75 4.78 85.13 4.51 99.06 4.79"/><polygon class="cls-4" points="252.15 5.6 266.07 6.42 279.98 5.91 293.9 5.95 307.81 5.88 321 4.23 307.81 5.88 293.9 5.95 279.98 5.91 266.07 6.42 252.15 5.6 238.23 5.33 224.31 5.62 238.23 5.33 252.15 5.6"/><polygon class="cls-4" points="515.48 232.44 515.98 232.41 516.28 232.41 515.98 232.41 515.48 232.44"/><polygon class="cls-4" points="293.38 233.25 288.71 233.15 293.38 233.25 307.29 233.18 319.66 232.5 307.29 233.18 293.38 233.25"/><polygon class="cls-4" points="196.49 7.35 210.41 5.18 223.9 5.6 210.41 5.18 196.49 7.35 182.59 6.23 175.63 5.52 182.59 6.23 196.49 7.35"/><polygon class="cls-4" points="85.64 232.95 98.74 233.37 102.93 232.79 98.74 233.37 85.64 232.95"/><polygon class="cls-4" points="155.64 231.04 168.24 231.72 182.13 233.08 168.24 231.72 155.64 231.04"/><polygon class="cls-4" points="140.46 232.91 140.46 232.91 154.35 230.97 154.35 230.97 140.46 232.91"/><polygon class="cls-4" points="237.76 232.87 251.66 230.09 237.76 232.87 237.76 232.87"/><polygon class="cls-4" points="377.39 6.5 391.29 4.07 405.2 4.46 419.12 5.22 433.03 5.38 446.71 4.68 433.03 5.38 419.12 5.22 405.2 4.46 391.29 4.07 377.39 6.5 363.47 4.6 354.19 6.01 363.47 4.6 377.39 6.5"/><polygon class="cls-4" points="613.78 6.9 627.67 5.61 627.67 5.61 613.78 6.9 599.88 4.26 591.64 6.08 599.88 4.27 613.78 6.9"/><polygon class="cls-4" points="655.47 4.54 641.57 6.5 628.24 5.65 641.57 6.5 655.47 4.54"/><polygon class="cls-4" points="544.27 6 558.18 5.23 559.47 5.12 558.18 5.23 544.27 6 530.37 5.57 516.98 5.07 530.37 5.57 544.27 6"/><polygon class="cls-4" points="460.84 6.69 446.93 4.67 446.93 4.67 460.84 6.69 460.84 6.69"/><polygon class="cls-4" points="543.82 232.68 557.72 232.66 562.35 232.65 557.72 232.66 543.82 232.68"/><polygon class="cls-4" points="502.57 6.46 488.66 4.93 474.84 5.12 488.66 4.93 502.57 6.46"/><polygon class="cls-1" points="683.17 230.74 668.93 229.47 655.17 230.42 641.11 230.19 627.49 230.87 613.35 229.5 599.34 229.63 585.51 230.43 543.88 230.65 529.87 230.23 515.87 230.39 502.13 231.13 488.51 230.71 474.22 228.08 460.18 228.14 432.71 229.93 418.59 228.29 404.53 229.68 390.83 230.53 362.98 229.18 348.79 228.76 335.07 230.19 321.08 230.39 307.28 231.15 293.42 231.22 279.43 230.93 265.76 231.16 251.68 228.02 237.75 230.81 223.96 228.13 209.92 229.46 195.83 229.63 182.33 231.06 168.35 229.7 154.07 228.96 140.55 230.88 112.38 229.45 98.8 231.34 85.24 230.94 71.06 228.1 61.16 228.93 63.75 229.59 69.31 230.28 70.94 230.14 75.27 231.01 84.84 232.93 85.64 232.95 98.74 233.37 102.93 232.79 112.65 231.45 126.56 232.27 140.46 232.91 154.35 230.97 154.35 230.97 154.35 230.97 155.64 231.04 168.24 231.72 182.13 233.08 183.23 232.96 196.03 231.65 203.11 231.56 209.94 231.48 223.86 230.18 237.76 232.87 251.66 230.09 251.66 230.09 265.56 233.2 279.46 232.96 288.71 233.15 293.38 233.25 307.29 233.18 319.66 232.5 321.19 232.41 335.09 232.23 349 230.78 362.92 231.2 376.83 231.92 390.14 232.53 390.74 232.55 404.65 231.7 418.57 230.33 431.17 231.79 432.48 231.95 446.39 231.07 460.31 230.16 474.22 230.1 488.14 232.7 502.06 233.16 515.48 232.44 515.98 232.41 516.28 232.41 529.89 232.26 543.82 232.68 557.72 232.66 562.35 232.65 571.64 232.65 585.54 232.46 599.46 231.65 613.37 231.53 627.29 232.88 641.21 232.22 655.13 232.45 668.47 231.54 669.06 231.5 669.06 231.5 669.06 231.5 682.99 232.76 688 232.71 688 230.69 683.17 230.74"/><polygon class="cls-1" points="62.41 7.34 71.28 6.93 85.09 6.54 98.94 6.81 112.96 7.65 126.81 7.88 141.06 8.59 154.78 7 168.46 6.84 182.42 8.25 196.56 9.39 210.34 7.21 224.35 7.64 238.19 7.36 252.03 7.62 266.14 8.45 279.98 7.94 293.91 7.98 308.07 7.9 321.63 6.19 335.46 9.37 349.86 8.71 363.49 6.65 377.42 8.55 391.44 6.1 405.09 6.49 419.1 7.25 433.14 7.41 446.64 6.67 460.81 8.73 474.78 7.15 488.44 6.95 502.56 8.5 516.39 7.08 544.38 8.02 558.35 7.25 571.94 6.09 585.97 9.4 599.91 6.33 613.68 8.94 627.54 7.64 641.64 8.54 655.5 6.59 669.32 8.18 679.38 8.45 682.2 6.69 682.75 6.61 669.38 6.15 655.47 4.54 641.57 6.5 628.24 5.65 627.67 5.61 613.78 6.9 599.88 4.27 591.64 6.08 585.99 7.33 572.09 4.05 559.47 5.12 558.18 5.23 544.27 6 530.37 5.57 516.98 5.07 516.47 5.05 502.57 6.46 488.66 4.93 474.84 5.12 474.75 5.12 460.84 6.69 460.84 6.69 460.84 6.69 446.93 4.67 446.71 4.68 433.03 5.38 419.12 5.22 405.2 4.46 391.29 4.07 377.39 6.5 363.47 4.6 354.19 6.01 349.56 6.71 344.85 6.92 335.65 7.33 321.73 4.14 321 4.23 307.81 5.88 293.9 5.95 279.98 5.91 266.07 6.42 252.15 5.6 238.23 5.33 224.31 5.62 224.31 5.62 223.9 5.6 210.41 5.18 196.49 7.35 182.59 6.23 175.63 5.52 168.67 4.82 168.51 4.82 154.75 4.97 140.83 6.58 126.91 5.85 122.35 5.78 112.99 5.62 99.06 4.79 85.13 4.51 75.75 4.78 63.45 6.69 62.41 7.34"/><polygon class="cls-4" points="75.75 207.62 77.87 207.56 77.06 207.42 75.75 207.62"/></svg>
