<svg id="レイヤー_2" data-name="レイヤー 2" xmlns="http://www.w3.org/2000/svg" xmlns:xlink="http://www.w3.org/1999/xlink" viewBox="0 0 668.32 360.83"><defs><style>.cls-1{fill:url(#名称未設定グラデーション_39);}.cls-2{fill:url(#名称未設定グラデーション_39-2);}.cls-3{fill:url(#名称未設定グラデーション_39-3);}.cls-4{fill:url(#名称未設定グラデーション_39-4);}.cls-5{fill:url(#名称未設定グラデーション_39-5);}.cls-6{fill:url(#名称未設定グラデーション_39-6);}.cls-7{fill:url(#名称未設定グラデーション_39-7);}.cls-8{fill:url(#名称未設定グラデーション_39-8);}.cls-9{fill:#fff;}</style><linearGradient id="名称未設定グラデーション_39" x1="334.86" y1="407.17" x2="448.68" y2="407.17" gradientUnits="userSpaceOnUse"><stop offset="0" stop-color="red"/><stop offset="0.3" stop-color="#ff0"/><stop offset="0.57" stop-color="#39b54a"/><stop offset="0.8" stop-color="blue"/><stop offset="1" stop-color="#662d91"/></linearGradient><linearGradient id="名称未設定グラデーション_39-2" x1="447.11" y1="390.28" x2="569.96" y2="390.28" xlink:href="#名称未設定グラデーション_39"/><linearGradient id="名称未設定グラデーション_39-3" x1="566.09" y1="363.6" x2="629.73" y2="363.6" xlink:href="#名称未設定グラデーション_39"/><linearGradient id="名称未設定グラデーション_39-4" x1="571.45" y1="394.3" x2="689.03" y2="394.3" xlink:href="#名称未設定グラデーション_39"/><linearGradient id="名称未設定グラデーション_39-5" x1="690.88" y1="393.35" x2="815.83" y2="393.35" xlink:href="#名称未設定グラデーション_39"/><linearGradient id="名称未設定グラデーション_39-6" x1="677.26" y1="413.97" x2="728.23" y2="413.97" xlink:href="#名称未設定グラデーション_39"/><linearGradient id="名称未設定グラデーション_39-7" x1="767.83" y1="419.83" x2="815.22" y2="419.83" xlink:href="#名称未設定グラデーション_39"/><linearGradient id="名称未設定グラデーション_39-8" x1="814.27" y1="404.76" x2="939.19" y2="404.76" xlink:href="#名称未設定グラデーション_39"/></defs><title>logo</title><path class="cls-1" d="M336.64,361a119.22,119.22,0,0,1,18.54-5.88c3.09-.7,6.62-1.82,9.78-1.16,5,1,5.56,5.85,6.38,10,2.42,12.25,2.3,24.87,5.11,37.05,1.68,7.31,4.05,18.09,13.81,15.38,8.8-2.45,16.34-11.89,20.49-19.56,3.78-7,7.71-16.89,16.89-8.87,5.11,4.46,10,9.28,14.92,13.91,1.94,1.81,4.21,2.95,3.39,6.29-.3,1.22-1.78,2.73-2.53,3.72a46.91,46.91,0,0,1-5.65,6.14,83.11,83.11,0,0,1-14.5,10.25c-11.2,6.52-22.85,12.32-34.3,18.36l-16.7,8.82c-2.77,1.46-5.75,3.63-8.75,4.52-4.9,1.47-9.44-2.77-12.17-6.53-4.28-5.87-5.31-14.56-6.83-21.53q-2.47-11.26-4.16-22.68-1.8-12.15-2.69-24.42c-.51-7-2.66-17.5.66-23.92.88-1.72-1.7-3.24-2.59-1.52-2.81,5.45-1.85,11.85-1.55,17.77q.63,12.47,2.19,24.88c1.89,15.09,4.31,30.61,8.79,45.18a26.45,26.45,0,0,0,9.88,14c4.66,3.56,7.92,2.49,12.89-.1,14-7.29,27.89-14.69,41.81-22.09,11.5-6.11,23.87-12,32.92-21.61,2.57-2.74,7.84-7.87,6.89-12.07-.53-2.34-3.28-4.11-4.88-5.6l-10.06-9.39c-3.51-3.27-7.65-8.54-12.91-8.79-5.63-.27-9.08,4.75-11.32,9.17-3.18,6.29-6.5,12-11.77,16.8-2.6,2.37-5.67,5-9.16,6-6.52,1.83-7.92-5.14-9.25-9.86-2.39-8.45-3-17.23-4-25.92-.72-6.8-1-14.69-3.71-21-2.23-5.26-6.85-6.29-12.16-5.6-8.39,1.09-16.73,3.89-24.54,7.05-1.76.72-1,3.62.8,2.89Z" transform="translate(-304.24 -325.42)"/><path class="cls-2" d="M449.6,386.64c-10.05,9.87,3.95,25.76,12,31.78,13.53,10.05,26.29-2.72,36.52-11.2l-2.56-1.06q0,10.44-.06,20.88c0,5.36-.07,11,1.75,16.09,3.83,10.73,15,11.54,25,11.91,9.3.34,20.29.54,20.27-11.36,0-6.32-1.46-12.88-2.26-19.14l-2.93-22.81c-.37-2.92-1.13-6.06-1-9,.18-4.25,3.43-7.77,6.07-10.79,4.59-5.25,10-9.3,15.56-13.48,7-5.29,16.76-13.21,10.84-22.59-5.23-8.31-14.57-13-23.51-16.24-4.36-1.57-10.07-4.26-14.78-4.19s-6.56,4.51-8.83,7.85c-8.23,12.15-19.38,22-31.23,30.53-5.7,4.09-11.6,7.9-17.57,11.57q-4.12,2.55-8.3,5c-3.78,2.26-8.13,5.94-12.82,4.49-1.85-.57-2.64,2.33-.8,2.9,4,1.24,7.46-.33,11-2.33,4.67-2.66,9.26-5.51,13.82-8.35a246,246,0,0,0,24.82-17.27,121.38,121.38,0,0,0,20.9-21.17c1.6-2.13,3-4.37,4.53-6.56,2.39-3.47,4.19-3.9,8.4-2.78a102,102,0,0,1,15.31,5.25,43.58,43.58,0,0,1,12,7.56,22.54,22.54,0,0,1,5.23,6.47c2.25,4.91-1.17,8.83-4.44,12.09-7.4,7.38-16.56,12.23-23.34,20.38-2.45,2.94-5.1,6.09-5.72,10-.91,5.72,1.12,12.57,1.85,18.27l2.19,17.11c.74,5.8,2.25,12,2,17.9-.39,9.47-11.34,8-18.18,7.65s-15.9-.39-19.9-7c-3-5-2.9-11.36-2.89-17,0-7.28,0-14.55.06-21.83a1.52,1.52,0,0,0-2.56-1.06c-8.12,6.73-19.48,19-30.89,12.08-7.33-4.46-22-20.05-13.44-28.42,1.38-1.36-.74-3.48-2.12-2.12Z" transform="translate(-304.24 -325.42)"/><path class="cls-3" d="M590.42,335.64c-6.37,5.18-12.54,10.59-18.43,16.3-3.39,3.29-7.5,7.17-6.8,12.36s5.5,8.52,10,10.51a171.44,171.44,0,0,1,18.28,9.42c7.92,4.67,21.64,12,30.08,4.44s8.89-24,4.38-33.65a26.3,26.3,0,0,0-12.47-12.72c-6.88-3.24-16-5.42-23.58-4.59-1.9.21-1.92,3.21,0,3,7-.76,15.64,1.22,22.07,4.18a23.79,23.79,0,0,1,12.31,13.95c2.35,6.89,1.71,14.56-.9,21.28-1.86,4.79-4.62,8.25-10.06,8.54a24.63,24.63,0,0,1-9.08-1.48c-5.7-1.92-10.77-5.29-15.91-8.33s-10.71-4.89-15.91-7.72c-4.19-2.29-8-6.68-5.16-11.65,1.65-2.84,4.55-5.14,6.91-7.38,5.27-5,10.75-9.75,16.38-14.34,1.5-1.21-.64-3.33-2.12-2.12Z" transform="translate(-304.24 -325.42)"/><path class="cls-4" d="M610,393.78c-6.4.86-12.78,1.87-19.12,3.11-4.86,1-10.15,1.95-14.18,5.05-7,5.4-7.6,17.63-5.26,25.46,2.43,8.12,9.56,14,17.43,16.52,10.86,3.5,22.76.53,32.92-3.77,19-8.07,34.52-22.38,47.12-38.48a238.61,238.61,0,0,0,17.89-26.52c1.77-3,4-6.51,3-10.17-1.29-4.55-7.32-7.8-10.72-10.61l-8.66-7.16c-1.63-1.34-3.5-3.21-5.59-3.81-4.47-1.29-8.34,2.43-11.58,4.94a109.71,109.71,0,0,0-25.33,28.15c-1,1.64,1.56,3.15,2.59,1.52a107.45,107.45,0,0,1,17.48-21.25c3.32-3.11,6.92-6.57,10.86-8.86,3.47-2,5.91-1.4,8.72.83,2.2,1.75,4.34,3.58,6.5,5.37,3.25,2.69,7.29,5.24,10.11,8.36s2.8,6.24.87,9.83c-1,1.84-2.13,3.61-3.22,5.39a235.91,235.91,0,0,1-14.15,20.77c-10.15,13.21-22.17,25.29-36.63,33.73-14.73,8.59-37.52,16.79-51.61,2.66a20.4,20.4,0,0,1-5.92-14.92c0-5.84.48-12.7,5.88-16.18,4.16-2.69,9.46-3.42,14.23-4.32,5.71-1.08,11.45-2,17.21-2.75,1.91-.26,1.1-3.15-.79-2.89Z" transform="translate(-304.24 -325.42)"/><path class="cls-5" d="M691.24,349.93c-.16,7.72-.53,15.47-.46,23.19,0,3.92.63,8.07,4.89,9.36,2.65.81,6,.31,8.66.34l9.42.1c3.89,0,8.24-.25,11.78,1.64,4.19,2.23,6.19,7,6.66,11.53.79,7.48-1.76,15.22-2.7,22.62-.78,6.24-1.72,12.94-.91,19.23a14.93,14.93,0,0,0,7.58,11.57c5.16,3,12.15,5.48,18.17,5.32,3.95-.11,8.08-1.57,10.65-4.68,3.93-4.77,3-12.15,2.43-17.81-.66-7-2-13.92-3-20.88a95.22,95.22,0,0,1-1.08-12.61c0-5.58-.21-11.06,6.9-11.75a110.21,110.21,0,0,1,22.68.18c4.09.45,10.11,2.21,13-1.92,2.54-3.63,1.43-10.35.93-14.42-.23-1.92-.63-3.78-1-5.68-.57-3,.56-3.69,3.12-5,2.24-1.17,4.06-1.59,5.66-3.79,6.47-8.88-2.29-20.71-11.22-23.52-4.79-1.5-10.61-.06-12.59,5a7.15,7.15,0,0,0,.13,5.47c1,2.37,7.88,8.54,3.26,10.74-1.23.58-.79,2.39.36,2.74l2.35.72-.36-2.74c-3.17,1.95-2.09-6.44-2.1-7.07a12.17,12.17,0,0,0-.62-3.78,12.42,12.42,0,0,0-3.36-5.21,10.8,10.8,0,0,0-11.46-2,9.77,9.77,0,0,0,.94,18.48l-.9-2.21a6.67,6.67,0,0,1-8.08,2.84c-3.63-1.24-5.38-5.16-5.53-8.75-.14-3.32,2.71-8,.07-10.88s-8.92-2.92-12.47-3.41c-5.13-.71-10.86-1.46-16-.64-3,.48-5.72,1.82-6.8,4.84-.63,1.76-.43,3.67-.58,5.49-.46,5.75-7.54,5.42-11.84,4.78-9.45-1.39-19.21-5.42-27.61,1.25-1.51,1.2.63,3.31,2.12,2.12,10.66-8.47,24.07,3.52,35.64-.83,3.41-1.28,4.43-3.89,4.69-7.32.32-4.19,1.44-7.15,6-7.5a61.06,61.06,0,0,1,9.56.27,85.73,85.73,0,0,1,10.58,1.59c2.43.52,4.07,1.49,4.36,4.36a21.1,21.1,0,0,1-.62,3.11c-.45,3.89.32,8.13,2.89,11.2,4.26,5.08,12.86,5,16.19-1a1.52,1.52,0,0,0-.89-2.21c-7.05-2.11-6.24-11.55.61-13.22s10.23,5.1,9.94,10.8c-.14,2.74-.66,5.49,1.88,7.34a4,4,0,0,0,4.88.15,1.52,1.52,0,0,0-.35-2.74l-2.35-.72.35,2.74c2.3-1.09,3.12-3.21,2.88-5.68a9.24,9.24,0,0,0-1.92-4.58c-.56-.83-1.32-1.53-1.81-2.4-2.6-4.53-.27-9,5.08-8.78,6.13.22,13,6.89,13.75,12.9.49,3.75-1,7.26-4.57,8.8-1.57.68-3.52.76-4.87,1.93-2.79,2.45-1.48,5.9-.9,9s1.49,7.76.86,11.07c-.37,1.94-1.55,5.1-3.75,6-1.35.55-4.51-.37-5.67-.51a117.79,117.79,0,0,0-17-.85c-4,.1-10.77-.46-14.31,2.09-3.32,2.38-3.08,7.64-3.15,11.26a106,106,0,0,0,1.6,18c1.56,10.13,9.28,36.31-7.57,36.79-5.66.16-13.33-2.42-17.94-5.72-5.93-4.22-5.2-11.78-4.78-18.19A191.19,191.19,0,0,1,734.24,408c.93-5.42,1.73-11.09.08-16.46C730.75,379.88,720.27,380,710,379.88c-3.14,0-6.28,0-9.42-.1-2.11-.06-4.49.45-6-1.55-1-1.29-.79-3.59-.81-5.11-.14-7.71.3-15.48.46-23.19,0-1.93-3-1.93-3,0Z" transform="translate(-304.24 -325.42)"/><path class="cls-6" d="M704.12,388.74a19.53,19.53,0,0,1,15.75,3c3.19,2.27,6.11,5.87,6.35,9.93.22,3.46-2.68,7.63-4.12,10.7-2.56,5.49-4.88,11.2-7.83,16.49-3.58,6.43-9.34,9.82-16.6,10.5-5.84.55-14,.08-17.16-5.77-3-5.46-.45-12.12,2.9-16.72s7.64-8.13,11.27-12.35a121.19,121.19,0,0,0,10-14.07c1-1.64-1.56-3.14-2.59-1.52-5.27,8.26-11.31,15.05-17.85,22.27-4.23,4.67-7.88,10.14-7.94,16.68-.15,14.43,17.06,16.72,27.93,13.22,7.09-2.28,11-7.25,14.2-13.74,2.17-4.45,4.2-9,6.31-13.47,1.5-3.21,3.6-6.66,4.29-10.17,2.64-13.37-15.42-20.23-25.67-17.88-1.88.43-1.08,3.32.8,2.89Z" transform="translate(-304.24 -325.42)"/><path class="cls-7" d="M769,397.53c6-1.62,13.49-4,19.78-3.47,3.13.24,6.49,1.56,7.7,4.67.34.88.56,1.82.82,2.73a61.92,61.92,0,0,0,2.1,6.2,126.77,126.77,0,0,0,7.49,14c1.33,2.3,2.64,4.61,3.78,7,.59,1.24,2.4,4.13,2.26,5.52-.24,2.24-2.39,4.23-4.13,5.34-5,3.19-12.82,7.23-19,6.05-6.56-1.26-10.51-8.14-13.2-13.73-5.26-10.91-6.72-23.09-6.76-35.09a1.5,1.5,0,0,0-3,0c0,15.2,2.37,31.67,11.69,44.2,3.61,4.84,8.32,8.33,14.59,7.76,7-.64,15.15-4.48,20.54-8.95,4.75-3.95,1.19-9.45-1.13-14-3.53-7-8.25-13.38-11-20.74-2-5.4-2.43-12.34-9.16-13.76-7.44-1.57-17.11,1.47-24.2,3.37a1.5,1.5,0,0,0,.8,2.89Z" transform="translate(-304.24 -325.42)"/><path class="cls-8" d="M817.28,376.25l-2.68,17.5c-.7,4.59-2.05,9.77-1,14.41,2,8.45,11.32,10.73,18.68,12.26,23.43,4.86,47.42,2.13,70.56,9.13,8.71,2.63,20,7.29,29.27,5,9.06-2.26,8.34-14,8-21.34-.43-8.18-1.49-20.24-8.68-25.61-3.31-2.48-7.51-2.95-11.5-3.16-6.12-.31-12.27-.19-18.4-.24-14.07-.11-28.26-.28-42.17-2.7-12.28-2.13-24.41-8.14-37.07-7-1.91.18-1.93,3.18,0,3,10.08-.94,19.39,3.12,29,5.39a159.93,159.93,0,0,0,27,3.65c9.61.58,19.24.58,28.86.66,4.53,0,9.1-.05,13.62.25,7.34.49,11.61,3.68,13.82,10.69A60.72,60.72,0,0,1,937,412.25c.35,5.2,1,12.53-2.21,16.84-3.33,4.46-10.94,2.75-15.71,1.82a138.84,138.84,0,0,1-13.75-3.73c-18.32-5.59-36.5-5.94-55.44-7.42a134.38,134.38,0,0,1-16.83-2.23c-4.8-1-10.93-2.06-14.4-5.86-4.29-4.7-1.91-12.49-1.06-18L820.17,377c.29-1.88-2.6-2.7-2.89-.79Z" transform="translate(-304.24 -325.42)"/><path class="cls-9" d="M305.77,483.21c5.09-4.7,10.3-9.48,16.62-12.3s14.07-3.41,19.95.24,8.89,11.08,9.35,18.13-1.1,14-2,21.05a116.7,116.7,0,0,0-.93,19.24c.16,4.76,1.59,10.68,6.27,11.61,4.22.83,7.71-3.15,10.17-6.68q12.58-18,25.15-36c7.18,2.87,7.85,13.06,13.56,18.28,2.68,2.47,6.37,3.69,8.86,6.35a12.9,12.9,0,0,1,3.19,7.13c.8,6-1.84,12-5.76,16.63s-9.06,8-14.14,11.25c-15.54,10-31.74,19.88-49.85,23.67-6.77,1.42-14.69,1.64-19.65-3.17-3.43-3.32-4.6-8.27-5.59-12.94q-8.19-39-12.72-78.62" transform="translate(-304.24 -325.42)"/><path d="M306.83,484.27c6-5.52,12.37-11.52,20.52-13.49,9.2-2.23,17.69,1.6,21.13,10.54,3.07,8,1.5,16.62.29,24.79-1.17,7.92-2,16-1.5,24.06.27,4,1.16,8.9,4.75,11.33s7.92.86,10.89-1.94c5.34-5,9.12-12.25,13.29-18.23l15.43-22.11-2.06.53c5.6,2.65,7,9,10,13.91a19.05,19.05,0,0,0,4.63,5.25c3.17,2.42,7.15,3.76,9.08,7.53,4.5,8.79-2.31,18.46-8.85,23.93-5.91,5-12.85,8.93-19.43,12.93-13,7.93-27.81,16.1-43.26,17.68-9.41,1-16.06-2.84-18.51-12.2-2-7.71-3.32-15.69-4.77-23.53q-5.37-28.95-8.71-58.21c-.22-1.9-3.22-1.92-3,0q3.52,30.6,9.17,60.91c2.59,13.78,3,35.37,21.28,36.18,16.59.74,34.08-9.09,47.82-17.33,12.5-7.5,32.32-17.12,32.56-34.14a15.3,15.3,0,0,0-3.25-10c-3-3.65-7.91-4.93-10.86-8.65-4.42-5.57-5.4-13.54-12.36-16.84a1.56,1.56,0,0,0-2,.54L374.18,519l-7.43,10.65c-2.11,3-5.25,9.21-9.44,10-13.31,2.47-4.37-39.31-4.1-45.56.47-10.63-3.37-23.1-14.8-26.24-13.25-3.65-24.68,6-33.7,14.32-1.42,1.31.7,3.43,2.12,2.12Z" transform="translate(-304.24 -325.42)"/><path class="cls-9" d="M412.07,469.73,411.3,491c-.08,2.16-.12,4.44.94,6.32,1.39,2.43,4.27,3.54,7,4.29a67.16,67.16,0,0,0,42-2.12c-1.37,8.46-7.6,15.18-13.54,21.36-6.52,6.77-13.15,13.63-21.3,18.31-5.71,3.29-12.5,5.82-15.63,11.63a6,6,0,0,0-.74,4.75,7.67,7.67,0,0,0,2.88,3.24q8.15,6.19,16.57,12c4,2.77,9,5.58,13.45,3.71a14.86,14.86,0,0,0,4.68-3.69L468,549.69c1-1.06,2.17-2.18,3.64-2.32a6.12,6.12,0,0,1,3.41,1.06c4.77,2.67,9.41,6.08,11.9,11s3.26,11.38,8.28,13.32c4.54,1.76,9.38-1.68,12.61-5.32a55.64,55.64,0,0,0,9.69-15.3c.93-2.2,1.73-4.64,1.1-7-.8-2.93-3.61-4.76-6.14-6.45a94,94,0,0,1-26.22-26.43,9.86,9.86,0,0,1-2-4.76,10.38,10.38,0,0,1,1.52-5l10.61-21.08c1.25-2.48,2.54-5.22,1.94-7.94-1.18-5.41-8.27-6.59-13.81-6.52a553,553,0,0,0-70.3,5.42" transform="translate(-304.24 -325.42)"/><path d="M410.57,469.73c-.28,8-1.56,16.57-.73,24.49.55,5.16,4.37,7.44,9,8.79,14,4.09,29.29,2.95,42.84-2.12L459.81,499c-1.58,7.88-6.66,13.86-12,19.53s-11.12,11.75-17.68,16.4c-5.72,4-26.49,11.49-21,21.91,1.21,2.29,4,3.88,6,5.38q4.85,3.63,9.78,7.11c4.71,3.33,10.47,8.15,16.71,7s11.19-8.83,15.21-13L465,555c1.24-1.29,2.58-3.25,4.08-4.22,3.87-2.5,6.21-.64,9.07,1.34a23.1,23.1,0,0,1,7.52,8c1.41,2.65,2.09,5.62,3.45,8.3,2,4,5.57,6.83,10.25,6.08,5.05-.81,8.93-5.09,11.91-8.91,3.73-4.78,8.57-11.58,9-17.85.36-5.39-3.67-8.08-7.68-10.83a93.82,93.82,0,0,1-16.81-14.77,89.8,89.8,0,0,1-7.3-9.31c-3.61-5.34-.86-10.57,1.73-15.71L496,485.72c1.42-2.81,3.32-5.81,3.85-9,2.48-14.51-21.18-11.21-28.95-10.92a566.32,566.32,0,0,0-57,5.13c-1.91.26-1.1,3.15.79,2.89q23.1-3.24,46.41-4.56,10.28-.57,20.56-.76c6.08-.11,17.94-.06,14.76,9.43-2.33,6.93-6.8,13.76-10.09,20.29-2.5,5-4.82,8.72-1.76,14,5.62,9.72,14.3,18.23,23.23,24.89,2.21,1.66,4.87,3,6.91,4.92,4.58,4.22,1.84,9.22-.57,13.73-2.89,5.43-7,12.25-12.82,15-8.25,3.87-10-5.72-12.49-11-2.22-4.78-6-8.28-10.39-11.09-2.69-1.72-5.66-3.74-8.88-2.16-2.62,1.28-4.68,4.3-6.66,6.34l-8.16,8.42c-5.46,5.64-11.4,15.1-20.2,10.78-5.86-2.87-11.16-7.4-16.38-11.27-1.5-1.11-4.24-2.6-5.32-4-2.81-3.77,0-7,2.49-9.21a40.54,40.54,0,0,1,8.08-5.08,76.61,76.61,0,0,0,15.34-10.65c9.4-8.44,21.38-19,24-32,.2-1-.69-2.28-1.84-1.85a67,67,0,0,1-36,3.34c-2.52-.48-5.41-.89-7.7-2.1-4.31-2.29-4.39-5.89-4.25-10.21.22-6.43.47-12.86.7-19.29.07-1.93-2.93-1.93-3,0Z" transform="translate(-304.24 -325.42)"/><path class="cls-9" d="M520.63,476.56q-.3,10.08.27,20.15a7.16,7.16,0,0,0,.72,3.25,6.21,6.21,0,0,0,2.88,2.26,22,22,0,0,0,12.22,1.84c3.36-.47,6.57-1.71,9.92-2.2s7.11-.09,9.56,2.26,2.94,5.71,3.25,8.94c1.73,18.1-2.08,36.9,3.4,54.24a4.86,4.86,0,0,0,1.69,2.79,5.08,5.08,0,0,0,2.47.58q10,.58,20.07.24c1.49,0,3.19-.22,4.06-1.43a4.89,4.89,0,0,0,.68-2.53c1.4-19.91-5.18-40-2.17-59.7a7,7,0,0,1,1.29-3.54c1-1.19,2.72-1.56,4.28-1.81a61.62,61.62,0,0,1,18.54,0c4.16.63,9,1.47,12-1.48,3.19-3.13,2.11-8.36,1.48-12.79a42.64,42.64,0,0,1,0-11.78" transform="translate(-304.24 -325.42)"/><path d="M519.13,476.56c-.14,5.5-.14,11,.09,16.49.14,3.2-.17,6.85,2.42,9.15,7.2,6.4,17.05,2.28,25.1,1.21,8.29-1.11,10.79,4.27,11.37,11.46.44,5.46.36,11,.27,16.44-.17,10.39-.56,20.92,1.64,31.15.58,2.71,1.06,7.07,3.61,8.81,3.06,2.08,9,1.18,12.5,1.24,5.34.08,15.79,2.29,17.1-4.9,1.88-10.33-.72-22.14-1.8-32.45-.56-5.26-1-10.55-1.07-15.85a80.17,80.17,0,0,1,.34-8.35c.12-1.31.07-3.36.63-4.57,1.51-3.22,4.72-3.17,7.58-3.45,6-.57,11.72.18,17.7.82,3.55.38,7.54.35,10.26-2.33,2.4-2.36,2.76-5.84,2.54-9-.41-5.66-1.31-10.9-.64-16.6.23-1.92-2.78-1.9-3,0a48.68,48.68,0,0,0,.08,12.18c.74,5.7,1.57,12.85-6.34,13-4,.07-8.17-1-12.23-1.22a51,51,0,0,0-13,.83c-7,1.54-6.62,9.05-6.82,15-.33,9.69,1,19.31,2,28.92.52,5,1,10,1,15a31.73,31.73,0,0,1-.13,6.54c-.85,4.09-3.49,3.42-6.94,3.48-4.56.08-9.13,0-13.68-.19-6.73-.3-7-7.3-7.7-12.77-1.32-9.88-.67-19.88-.61-29.81,0-6.65,1.13-16.56-3.05-22.33-5-6.88-13.72-3.34-20.4-2.08a21.37,21.37,0,0,1-9.74-.31c-4.28-1.19-5.79-3.66-6-8-.26-5.8-.28-11.61-.13-17.41,0-1.93-3-1.93-3,0Z" transform="translate(-304.24 -325.42)"/><path class="cls-9" d="M627.36,475.68c6-4.22,7-13.6,2.71-19.49s-12.91-7.86-19.69-5.15a12.12,12.12,0,0,0-4.77,3.22c-3.53,4.1-2.72,10.29-1.29,15.5a2.38,2.38,0,0,1,0,1.89,2.22,2.22,0,0,1-1.16.74,23.34,23.34,0,0,1-8.48,1.39,6,6,0,0,1-2.72-.57,5.41,5.41,0,0,1-2.22-3c-1.81-5.07-.86-11.5-4.87-15.08-1.92-1.71-4.58-2.31-7.13-2.62a43.09,43.09,0,0,0-10.34,0,17.38,17.38,0,0,0-8.37,2.88c-2.38,1.79-4,4.85-3.37,7.77.51,2.32,2.34,4.62,1.41,6.8s-4.12,2.44-6.58,2.13c-5.35-.68-10.68-1.84-16.07-1.71s-11,1.75-14.66,5.74" transform="translate(-304.24 -325.42)"/><path d="M628.42,476.74c8.29-6.59,7.34-19.88-1.53-25.52s-23.87-3-25.17,8.92c-.34,3,.72,5.65.78,8.58,0,1.65.41,1.9-1.4,2.75a11.82,11.82,0,0,1-3.2.6c-3.75.47-6.34-.49-7.29-4.26-1.29-5.1-.86-11.08-5.62-14.47-7.61-5.41-30.08-4.39-30.93,7.94-.23,3.39,4.08,9.49-2.31,9.4-4.28-.07-8.59-1.31-12.87-1.66-7.38-.59-14.78.64-20.2,6a1.5,1.5,0,0,0,2.12,2.12c7.47-7.42,18.17-5.2,27.49-3.89,3.87.55,9.92,1,10.46-4.25.45-4.34-3.84-7.27.2-11.6,3.22-3.44,9.2-3.74,13.6-3.75,5.26,0,11.54.43,13.49,6.19,1.11,3.25,1,6.79,2,10.06,1.87,5.82,6.74,6,12.14,4.85,7.7-1.58,5-4.65,4.47-10.94-.93-10.9,10.77-15.28,19.52-10.69a12.88,12.88,0,0,1,2.1,21.48c-1.51,1.2.63,3.31,2.12,2.12Z" transform="translate(-304.24 -325.42)"/><path class="cls-9" d="M614.89,462.16a13.71,13.71,0,0,0-.79,4.61,2.53,2.53,0,0,0,.19,1.1,2.28,2.28,0,0,0,2.26,1,4.59,4.59,0,0,0,3.3-1.55,3.36,3.36,0,0,0,.51-3.51,1.64,1.64,0,0,0-.66-.74,2.06,2.06,0,0,0-1-.14l-3.5,0" transform="translate(-304.24 -325.42)"/><path d="M613.44,461.76c-.68,2-1.67,5.63,0,7.45s4.49,1.34,6.27.22a5,5,0,0,0,2.21-5.84c-1-2.85-4.26-2.15-6.67-2.13a1.5,1.5,0,0,0,0,3l2,0c.39,0,1.61-.2,1.84.05.74.82-.63,2.26-1.25,2.56a3.31,3.31,0,0,1-1.58.33c-.54-.05-.53-.14-.62-.61a9.31,9.31,0,0,1,.73-4.21c.61-1.84-2.28-2.63-2.89-.8Z" transform="translate(-304.24 -325.42)"/><path class="cls-9" d="M532.77,507.86c-.35,2.72-1.68,5.19-2.94,7.63-5.38,10.46-9.79,21.63-10.91,33.34a4.14,4.14,0,0,0,.1,1.79,4.3,4.3,0,0,0,1.26,1.62c2.65,2.46,5.39,5,8.77,6.26a21.12,21.12,0,0,0,8.73,1,17.75,17.75,0,0,0,8.82-2.45c4.45-2.93,6.23-8.51,7.44-13.7a160.46,160.46,0,0,0,3.21-18.46c.53-4.6.64-9.88-2.64-13.14a12.26,12.26,0,0,0-4.41-2.62,26.65,26.65,0,0,0-16.35-.79" transform="translate(-304.24 -325.42)"/><path d="M531.33,507.46c-1.53,7.64-6.73,14.79-9.41,22.17a82.5,82.5,0,0,0-3.4,11.84c-.5,2.48-1.78,7-.95,9.55,1.39,4.26,8.79,8.43,12.77,9.45,5.48,1.4,12.92.87,17.59-2.54s6.3-8.93,7.56-14.16c1.77-7.37,3.6-15.48,3.55-23.11-.09-13.62-14.51-16.4-25.59-13.74-1.88.45-1.08,3.34.8,2.89,5.61-1.34,12.41-1.34,17.54,1.72,5.3,3.16,4.4,10,3.74,15.24-1.22,9.65-2.14,27.53-13.55,30.65a19.46,19.46,0,0,1-17.27-3.3c-3.22-2.54-4.55-4.13-3.91-8.39a72.84,72.84,0,0,1,1.62-7.74,98.64,98.64,0,0,1,6-16.19c2.06-4.44,4.84-8.69,5.81-13.54.38-1.88-2.51-2.69-2.89-.8Z" transform="translate(-304.24 -325.42)"/><path class="cls-9" d="M592.24,511.45a61.61,61.61,0,0,0,8,35.82c2.26,3.89,5.21,7.74,9.45,9.23,3.7,1.31,7.87.59,11.39-1.14a38.14,38.14,0,0,0,9.32-7.09,6.63,6.63,0,0,0,1.92-2.55,5.92,5.92,0,0,0,0-3.07c-1.85-8.22-9-14.58-10.36-22.91a22.8,22.8,0,0,0-1-5.29c-1.42-3.35-5.19-5-8.71-5.92a24.78,24.78,0,0,0-10.22-.87,12.32,12.32,0,0,0-8.55,5.21" transform="translate(-304.24 -325.42)"/><path d="M590.74,511.45c-1,13.85,2.18,29.55,11,40.67,8.62,10.91,23.9,6.08,31.13-4.26,3.24-4.65-1.05-11.33-3.46-15.44-1.93-3.3-4.16-6.54-5.3-10.21-1-3.17-.63-6.84-2.49-9.7-2.89-4.46-9.55-6-14.44-6.45-6-.56-11.37,1.18-15,6.05-1.15,1.55,1.45,3,2.59,1.52,4.17-5.61,11.69-5.29,17.74-3.46,3.52,1.06,6.39,2.64,7.51,6.39.62,2.09.52,4.34,1.19,6.44,1.16,3.69,3.26,7,5.21,10.29,3.11,5.25,6.68,10.62,1.12,15.65-5,4.48-11.54,8.63-18.42,5.69-4.58-2-7.48-7.63-9.53-11.86a61.73,61.73,0,0,1-5.82-31.32c.14-1.93-2.86-1.92-3,0Z" transform="translate(-304.24 -325.42)"/><path class="cls-9" d="M653.77,459.35c-10.54,2.27-18.44,13.23-17.25,23.95a37.49,37.49,0,0,1,24.38,15.78c1.45,2.14,2.69,4.46,4.52,6.27s4.48,3.08,7,2.47a10.09,10.09,0,0,0,4.64-3.18,58.52,58.52,0,0,0,11.27-17,6.1,6.1,0,0,0,.7-3.78,6.21,6.21,0,0,0-1.65-2.57,88,88,0,0,0-32.61-22.2" transform="translate(-304.24 -325.42)"/><path d="M653.37,457.9A24.48,24.48,0,0,0,635,483.3a1.53,1.53,0,0,0,1.1,1.45,37.24,37.24,0,0,1,16.73,7.69c4.47,3.69,6.76,8.58,10.48,12.83,7.59,8.69,14.82,1.25,19.93-5.78,2.75-3.79,6.73-9.14,7.28-14,.48-4.21-4.07-7.46-6.79-10a91.85,91.85,0,0,0-28.59-17.9c-1.79-.71-2.57,2.19-.8,2.9a87.67,87.67,0,0,1,24.79,14.91c3.91,3.36,9.79,7.32,7.17,13A55.81,55.81,0,0,1,678.27,501c-2,2.38-4.73,6-8.47,5.26-3.29-.63-5.09-4.18-6.75-6.67a43.63,43.63,0,0,0-6.95-8.32,40,40,0,0,0-19.18-9.45l1.1,1.45a21.51,21.51,0,0,1,16.15-22.5c1.87-.48,1.08-3.37-.8-2.9Z" transform="translate(-304.24 -325.42)"/><path class="cls-9" d="M719.53,472.61c-6.58,2.93-9.14,10.68-12.63,17-6.11,11-16.63,19.05-27.91,24.68s-23.48,9.14-35.39,13.3a9.91,9.91,0,0,0-3.76,2c-2.53,2.45-1.81,6.67-.5,10a44.66,44.66,0,0,0,7.07,11.93,15.88,15.88,0,0,0,4.15,3.78,14.87,14.87,0,0,0,6.8,1.68c11.65.54,22.62-5.22,32.42-11.55a200.88,200.88,0,0,0,46.56-40.94c3.09-3.76,6.18-8.64,4.42-13.18a14.43,14.43,0,0,0-3.23-4.44l-12.38-13.14c-1.79-1.9-5-3.79-6.62-1.74" transform="translate(-304.24 -325.42)"/><path d="M718.77,471.31c-8,4.09-10.22,13.16-14.79,20.22-5.87,9.09-14.84,15.79-24.34,20.73-10.5,5.46-21.87,8.89-33,12.69-3.53,1.2-7.87,2.1-9.39,6-1.37,3.46,0,7.37,1.35,10.58,3.19,7.38,8.35,15.67,17,16.73,9.88,1.22,19.76-2.74,28.2-7.48a193,193,0,0,0,50.31-41.33c3.32-3.81,7.43-8.07,8.48-13.2.89-4.37-1.15-7.43-3.94-10.5-4.17-4.6-8.51-10.21-13.38-14.07-2.56-2-5.08-2.88-7.74-.81-1.52,1.19.61,3.3,2.12,2.12,2.6-2,9.15,6.68,10.69,8.31,3.16,3.36,9.51,8,9.49,13s-4.79,9.52-7.84,13q-4.26,4.89-8.85,9.46C710.8,529,696.7,540.23,681.46,548.59c-7.8,4.27-18.13,8.61-27.21,6.39-4.73-1.16-7.65-5.33-10.09-9.26-2.56-4.14-6.95-11.38-2.43-15.74,1.39-1.34,5.54-2.09,7.39-2.72l5.13-1.72c4.56-1.53,9.11-3.07,13.59-4.8a108.76,108.76,0,0,0,20.83-10.29,61.93,61.93,0,0,0,17-16.11c4.7-6.76,6.77-16.46,14.58-20.44,1.73-.87.21-3.46-1.51-2.59Z" transform="translate(-304.24 -325.42)"/><path class="cls-9" d="M770.8,458.54a63.51,63.51,0,0,0-16.62,18.32c-.78,1.3-1.54,2.8-1.18,4.27.67,2.78,4.37,3.19,7.22,3.3a47.33,47.33,0,0,1,10.84,1.73,53.39,53.39,0,0,1,20.62,11.08,4.1,4.1,0,0,0,2.65,1.36,3.64,3.64,0,0,0,2.07-1A31.76,31.76,0,0,0,807.3,480a11.1,11.1,0,0,0,.32-4.05c-.5-3.48-3.53-6-6.53-7.85a50.86,50.86,0,0,0-29-7.38" transform="translate(-304.24 -325.42)"/><path d="M770,457.25a68.15,68.15,0,0,0-14.43,14.69c-2.41,3.38-6.64,8.81-2.14,12.34,1.88,1.47,4.51,1.46,6.75,1.65a55.67,55.67,0,0,1,13.66,2.68,52.16,52.16,0,0,1,11.69,5.84c2.24,1.5,5.53,5.53,8.56,5.62,4.43.14,9-7,10.87-10.25,2.53-4.31,5.48-10.82,3.63-15.87-2-5.54-8.91-8.66-13.9-10.74a53.53,53.53,0,0,0-22.68-4c-1.92.07-1.93,3.07,0,3,10.37-.37,22.42,2,30.61,8.86,5.63,4.71,2.93,11.8-.25,17.21-1.22,2.07-2.81,4.87-4.83,6.22-2.88,1.92-5.81.73-8.43-1.2a53.51,53.51,0,0,0-25.27-10.1c-1.22-.14-2.44-.17-3.66-.29-2.77-.26-3.23.31-4.08-2.86-.73-2.71-.64-2.56.66-4.56.73-1.1,1.49-2.17,2.28-3.23a63.89,63.89,0,0,1,12.47-12.44c1.52-1.15,0-3.76-1.51-2.59Z" transform="translate(-304.24 -325.42)"/><path class="cls-9" d="M760.49,487.58a24.87,24.87,0,0,0-16.58,22.63,2.21,2.21,0,0,0,.37,1.52,2.32,2.32,0,0,0,1.51.6l14.82,2.13c5.09.73,10.67,1.72,13.95,5.69,2.12,2.57,3.18,6.3,6.25,7.61,2.72,1.15,6-.26,7.82-2.59s2.46-5.35,2.85-8.28c.45-3.45.59-7.05-.6-10.32a18.87,18.87,0,0,0-5.47-7.48,33,33,0,0,0-25.81-7.93" transform="translate(-304.24 -325.42)"/><path d="M760.09,486.13a26.94,26.94,0,0,0-13.87,11.22c-2,3.21-5.87,11.5-3.23,15.14,1.27,1.76,4.26,1.56,6.11,1.82,4.17.6,8.35,1.13,12.51,1.8,4.65.75,9.45,1.78,12.4,5.81,1.56,2.12,2.49,4.69,4.68,6.3,3.72,2.74,8.56,1.14,11.24-2.3,3.53-4.53,4.19-12.65,2.88-18.09-3.25-13.57-20.92-19.47-33.21-18.17-1.9.2-1.92,3.21,0,3,10.23-1.08,23.86,2.67,29,12.56,2.63,5.06,2.55,14.22-1.16,18.9-5.74,7.22-9.31-2.76-12.76-6-6.08-5.79-17-5.55-24.78-6.66-4.09-.59-5-.57-4.06-5a23.12,23.12,0,0,1,2.63-6.9A23.57,23.57,0,0,1,760.89,489c1.8-.67,1-3.57-.8-2.9Z" transform="translate(-304.24 -325.42)"/><path class="cls-9" d="M830.05,483.39c-9.95,9.43-12.21,24.67-21.36,34.88-6.26,7-15.23,11-24.3,13.32s-18.46,3.25-27.64,5.16c-2,.42-4.15,1-5.67,2.37-2.88,2.69-2.42,7.31-1.63,11.18,1.11,5.43,2.66,11.19,6.88,14.78,5,4.27,12.46,4.22,18.89,2.74,6.94-1.59,13.49-4.53,19.9-7.63,11.79-5.69,23.38-12,33.57-20.21s19-18.49,24-30.57c.95-2.29,1.78-4.77,1.32-7.2s-2.25-4.58-4-6.45a152.44,152.44,0,0,0-11.73-11.29,10.33,10.33,0,0,0-3.82-2.4,3.68,3.68,0,0,0-4.06,1.25" transform="translate(-304.24 -325.42)"/><path d="M829,482.33c-6.83,6.8-10.13,15.7-14.42,24.14-5.42,10.68-13.24,17.79-24.57,21.85s-23.63,4-35.17,7.33c-8.75,2.51-8,10.69-6.16,18,2.1,8.4,6.74,15.12,15.84,16.34,10.27,1.37,20.73-3.47,29.77-7.76,19.83-9.42,39.74-21,52.6-39.28,5.54-7.88,12.54-18.44,5.27-27.14a82.35,82.35,0,0,0-13.95-13.41c-2.87-2.07-6.16-2.92-8.83-.17-1.34,1.39.78,3.51,2.13,2.12,3.2-3.3,10.8,5.68,13.06,7.9,4.8,4.73,9.65,9.1,6.8,16.43-3.29,8.45-8.93,16-15.22,22.5-12.76,13.09-29.33,22-45.8,29.59-8.29,3.8-19.11,8.55-28.37,5.63-5.35-1.68-8.24-6.2-9.79-11.33-1.3-4.28-3.18-10.14-.31-14s10-3.86,14.52-4.6c4.93-.81,9.88-1.54,14.76-2.62,7.43-1.64,14.86-4.08,21.24-8.31,15.08-10,16.49-29,28.73-41.15a1.5,1.5,0,0,0-2.13-2.12Z" transform="translate(-304.24 -325.42)"/><path class="cls-9" d="M862.56,472.49a180.51,180.51,0,0,0-3.41,24.61,9.45,9.45,0,0,0,.65,5.15c1,1.88,3.14,2.84,5.16,3.56,12.11,4.29,25.38,4.07,38.12,2.37,3.46-.46,7.38-.9,10.07,1.33s3,6.79,1.31,10-4.61,5.62-7.49,7.86a101.83,101.83,0,0,1-11.35,8c-10,5.79-21.9,8.14-31.16,15.07-1.59,1.19-3.24,3.16-2.34,4.92a4.73,4.73,0,0,0,1.37,1.45,43.9,43.9,0,0,1,15.1,24.24c2.44-1.14,5.28-.72,8-.69,10.9.1,20.68-6.45,29-13.51a173.88,173.88,0,0,0,35.32-41.2c5.3-8.62,10-18.65,7.85-28.54a18.05,18.05,0,0,0,5.73-.62c4.68-1.57,7.32-7.08,6.5-11.94s-4.49-8.92-8.88-11.18c-2.78-1.44-6.31-2.2-8.95-.52-3,1.91-3.55,6.12-3,9.63s2,7,1.65,10.53l-1-7.25c-.4-3-.85-6.15-2.6-8.62s-5.24-4-7.91-2.56c-3.11,1.69-3.31,6-3.11,9.55l.61,10.45c-1.76-3.55-1.15-8.06-3.42-11.32-1.94-2.78-5.47-3.89-8.76-4.74a201.15,201.15,0,0,0-62.2-6" transform="translate(-304.24 -325.42)"/><path d="M861.12,472.09c-1.73,8.44-3.7,17.68-3.53,26.34.12,6.46,4.89,8.36,10.46,9.93a77.4,77.4,0,0,0,25.86,2.24c4.52-.28,9.21-1.48,13.74-1.29,10.23.43,5.78,10.61,1.31,14.56a83.13,83.13,0,0,1-22.85,14.49c-7.35,3.09-15.25,5.58-21.74,10.37-1.74,1.28-3.86,3-4,5.35-.13,2.59,2.12,3.84,3.79,5.34a43.34,43.34,0,0,1,13,22.08,1.51,1.51,0,0,0,1.85,1c5-1.69,10.7-.32,15.93-1.76a46.46,46.46,0,0,0,13.52-6.53c9.14-6.17,17.27-14.14,24.63-22.3a172.7,172.7,0,0,0,19.52-26.21c5.33-8.84,9.44-18.51,7.57-29l-1.45,1.9c6.06,0,11.32-2,13.27-8.32,1.87-6.05-1-12.13-5.74-16-4-3.27-10.85-6-15.21-1.73-5.48,5.42-.64,14.11-.74,20.4h3c-.87-6.58-1-21.29-11.16-20.43-9.53.81-6.15,16.16-5.81,22l2.95-.4c-2-5-1.34-10.75-6.12-14.22-5.55-4-14.52-4.76-21-5.95a206.31,206.31,0,0,0-48.68-3c-1.92.1-1.93,3.1,0,3A203.83,203.83,0,0,1,905.69,476a180.2,180.2,0,0,1,19.55,4c3.8,1,7.45,2.3,9,6.33,1,2.81,1,5.87,2.17,8.68.59,1.43,3.06,1.45,3-.4l-.46-7.84c-.07-1.31-.22-2.64-.2-4,0-2.9.06-3.52,2.63-5.41s3.66-1.7,5.72.84a11.16,11.16,0,0,1,1.91,4.94c.7,3.22.94,6.59,1.37,9.87.25,1.85,3,2,3,0,.07-4.14-1.58-7.8-1.82-11.87-.12-2.11.07-4.82,1.68-6.41,3.11-3.06,7.86-.5,10.5,1.43,3.75,2.74,6.67,7.17,5.77,12-1,5.58-5.5,7.39-10.71,7.43a1.52,1.52,0,0,0-1.44,1.9c2,11.07-3.74,21.27-9.52,30.27a171.49,171.49,0,0,1-19.11,24.5c-6.76,7.22-14.13,14.34-22.41,19.78a40.52,40.52,0,0,1-13.66,6.16c-4.79,1-9.74-.19-14.38,1.38l1.85,1.05a46.77,46.77,0,0,0-9-18.41c-2.94-3.63-9.38-6.33-4.46-11.46,3-3.1,9-5,12.83-6.54,6.82-2.81,13.74-5.34,19.94-9.41,5.55-3.63,13.39-8.39,16.43-14.57,2.16-4.4,1.6-10.39-3.08-12.91-5.72-3.07-14.45,0-20.61.29A80.94,80.94,0,0,1,876,507c-4-.62-9.18-1.32-12.66-3.52-4.36-2.75-2.46-9.76-2-14,.62-5.58,1.55-11.1,2.67-16.59.39-1.88-2.51-2.69-2.89-.8Z" transform="translate(-304.24 -325.42)"/><path class="cls-9" d="M510.9,592.32A41.94,41.94,0,0,0,513.29,578a5.91,5.91,0,0,1,.63-3.44c.76-1.12,2.2-1.51,3.52-1.81a52.4,52.4,0,0,1,12.15-1.85c4.11,0,8.35,1.11,11.46,3.79a3.24,3.24,0,0,1,1.28,1.94,3.92,3.92,0,0,1-.43,1.88,31.17,31.17,0,0,0-2,8.18,2.48,2.48,0,0,0,.22,1.66,2.61,2.61,0,0,0,1.66.86c5.84,1.35,12.27,2.64,17.6-.1,3.47-1.79,6.33-5.21,10.23-5.37,3.58-.14,6.72,2.74,8.05,6.06s1.25,7,1.15,10.61c-.08,2.58-.24,5.38-1.92,7.33-1.54,1.78-4,2.42-6.3,2.91a162.61,162.61,0,0,1-30.47,3.58c-2.87.07-5.84.07-8.49,1.2s-4.91,3.69-4.7,6.56c5.21,2.56,11.34,1.75,17.12,1.21a152.1,152.1,0,0,1,17.6-.62c4.39.1,9,.45,12.71,2.78a20,20,0,0,1,6.41,7.21,40.15,40.15,0,0,1,2.22,35c-1.48,3.53-3.57,7-6.76,9.09-2.73,1.82-6,2.55-9.27,3.16-13.55,2.57-27.34,3.69-41.09,4.81a6.72,6.72,0,0,1-3.37-.29c-1.85-.83-2.59-3.09-4.19-4.33-1.12-.88-2.58-1.18-3.83-1.86-4-2.14-5-7.29-5.63-11.78-.25-1.84-.46-3.84.51-5.43,1.84-3,6.31-2.43,9.8-1.76a59.58,59.58,0,0,0,24.73-.5c4.52-1.07,9.71-3.65,10-8.29a2.75,2.75,0,0,0-.61-2.12,3.35,3.35,0,0,0-1.81-.79c-7.55-1.48-15.14,1.68-22.27,4.59s-15,5.66-22.35,3.41a10.48,10.48,0,0,1-4.87-2.89,10.05,10.05,0,0,1-2.27-6.14c-.49-7.87,4.88-14.71,7.95-22a6.61,6.61,0,0,0,.73-3.44c-.41-2.93-4-4.18-7-4.09s-6.1.88-8.74-.46c-2.08-1-3.36-3.21-4.16-5.4a21.12,21.12,0,0,1,1-16.51,5.85,5.85,0,0,1,1.86-2.36,6.36,6.36,0,0,1,3-.77,67.91,67.91,0,0,1,16.48.75" transform="translate(-304.24 -325.42)"/><path d="M512.35,592.72a47.27,47.27,0,0,0,2.32-11.1c.11-1.42-.38-3.59.13-4.85,1.05-2.6,4.21-2.92,6.48-3.39,4.35-.89,8.9-1.55,13.27-.36,2.6.71,5.74,1.73,5.9,5.06.07,1.35-1.2,3.5-1.5,4.84-1,4.67-.91,6.94,4,8.07,5.35,1.23,11.24,2,16.4-.29,2.87-1.29,6-5,9.2-5.34,6.67-.64,8.53,6.16,8.76,11.42s-.16,10.68-6.46,12.24a119.52,119.52,0,0,1-12,2.17c-8,1.13-16.37.52-24.31,1.87-4.91.84-8.78,3.74-9.11,8.9a1.54,1.54,0,0,0,1.1,1.45c5.72,2.41,11.49,1.79,17.52,1.26a121.84,121.84,0,0,1,20.92-.47c16.35,1.4,21.43,21.23,18.92,35.07-1.05,5.77-3.36,12.63-8.41,16.09-6,4.14-16.35,4.38-23.38,5.26-6.23.78-12.48,1.36-18.73,1.89-4.28.37-8.36,1.29-12.13-1.44-.72-.52-1.15-1.54-1.87-2.13a21,21,0,0,0-3-1.59c-3.55-2-4.87-4.67-5.64-8.63-.71-3.68-1.55-8.14,3.51-8.58,2.62-.23,5.45.7,8,1.05a61.32,61.32,0,0,0,9.28.54c7.12-.15,21.28-.91,23.56-9.72,2.66-10.26-15.28-5.52-19.65-4-5.65,2-11,4.78-16.91,6.06-4.27.94-9.71,1.43-13.63-1-4.29-2.67-4.25-8-3.1-12.32,1.68-6.4,14.87-21.86,2.56-25-2.5-.63-5,0-7.5,0-6.1,0-8-6.25-8.14-11.32-.12-5.57,1.39-10.64,7.41-11.6,4.51-.73,9.8.12,14.25.81,1.89.29,2.7-2.6.79-2.89a77.8,77.8,0,0,0-10.45-1c-3,0-7.27-.51-10,1.08-4.29,2.49-5.22,10-4.94,14.44.29,4.56,1.84,10.55,6.44,12.64,2.49,1.14,5,.72,7.65.62,1,0,2.87-.39,3.7.11s2,6.39,1.76,7.23c-.42,1.69-1.76,3.46-2.55,5-4.53,8.85-8.64,22.87,4.48,26.24,7,1.8,14.15-.42,20.64-3,3.4-1.33,24.39-10.17,24.31-3,0,3.79-6.84,5.59-9.6,6.21a56.13,56.13,0,0,1-13.74,1.29c-5.32-.13-12.3-3-17.51-1.09-4.66,1.67-4.43,6.4-3.77,10.52.87,5.36,2.6,9.24,7.42,11.9,2.59,1.42,3.84,3.82,6.23,5.27,2.7,1.64,6.36.68,9.31.44,7.88-.66,15.76-1.36,23.6-2.4,6.84-.9,15.2-1.28,21.42-4.57,4.81-2.55,7.65-7.38,9.46-12.35,4.7-12.85,3-32-8.3-41.22-5.51-4.49-13.26-4.26-20-4.19-9.38.09-20.55,3.24-29.43-.5l1.1,1.44c.51-7.89,12.25-6.19,17.45-6.49q6.92-.4,13.77-1.38c5.86-.84,16.07-.86,19.37-6.89,2.91-5.3,2.11-15.67-1.38-20.55-3.36-4.72-8.63-5.46-13.44-2.55-4.29,2.59-7.22,5.08-12.61,5.09-2.22,0-5.75-.06-7.8-1.09-1.73.11-2.46-.8-2.21-2.72a29,29,0,0,1,.73-3.3c.72-2.58,2.3-4.73.92-7.31-1.14-2.12-4.24-3.43-6.36-4.19-6.14-2.18-15.55-1.58-21.47,1.2-2.37,1.12-3.2,2.46-3.55,5-.71,5.21-.67,10.05-2.34,15.15-.61,1.84,2.29,2.63,2.89.8Z" transform="translate(-304.24 -325.42)"/><path class="cls-9" d="M637.18,572.37a3.69,3.69,0,0,1,1.53-4.6,7.24,7.24,0,0,1,5.16-.7c5.54,1,10,5,13.82,9.17a136.23,136.23,0,0,1,9,10.76,2.75,2.75,0,0,1,.74,1.62,2.69,2.69,0,0,1-.84,1.66,47.56,47.56,0,0,1-8.81,7.22l-36,25a3.8,3.8,0,0,0-1.56,1.62c-.61,1.6,1,3.11,2.47,4,17.23,10.85,37.8,17.08,51.84,31.83-11,4.57-17.92,16-28.57,21.37a4,4,0,0,1-2.92.58,4.25,4.25,0,0,1-2-1.81,101.87,101.87,0,0,0-6.06-8.19c-11.55-13.39-30.85-18.81-40.79-33.43a15.25,15.25,0,0,1-2.85-6.69,17,17,0,0,1,.72-6.12,68,68,0,0,1,33-42.17,61,61,0,0,0,8.55-5c2.61-2,4.82-4.83,5.26-8.1" transform="translate(-304.24 -325.42)"/><path d="M638.63,572c-1.5-5.71,7.19-2.93,8.78-2.17a23,23,0,0,1,4.77,3.17A65.54,65.54,0,0,1,659,579.9c1.16,1.32,2.3,2.65,3.41,4,1.75,2.15,4.07,3.57,2,6.48s-6.12,4.92-9,6.94L635.76,611l-9.83,6.8c-1.9,1.32-5,2.69-6.36,4.65-2.4,3.56.82,6,3.73,7.83,5.46,3.45,11.33,6.29,17.1,9.2,11.83,5.95,23.7,12,33.07,21.55l.3-2.35c-7.07,3.15-12.39,8.56-18.06,13.66-2.5,2.26-5.87,6.12-9.19,7-5.1,1.34-8.61-6.51-11.41-9.55-9.82-10.68-24-15.88-34.33-25.9-3.07-3-6.65-6.77-7.69-11.05-1-4,.84-8.67,2.2-12.44a66.61,66.61,0,0,1,30.55-35.59c6.17-3.4,12.88-6.42,14.5-14,.4-1.88-2.49-2.68-2.9-.79-1.77,8.25-11.32,10.75-17.59,14.83a69.24,69.24,0,0,0-14.28,12.4c-7.34,8.4-15.61,21.37-15.76,33-.14,11.31,13.34,20.06,21.62,25.51,5.73,3.77,11.67,7.27,16.91,11.71a50.65,50.65,0,0,1,6.69,6.81c2,2.45,3.6,6.22,6.14,8.19,4.53,3.53,11.74-3.71,15-6.52,6.14-5.32,11.6-11.33,19.15-14.69a1.52,1.52,0,0,0,.3-2.36c-10.71-11-24.57-17.35-38-24.22-3.37-1.72-6.71-3.47-10-5.35-2.74-1.59-6.26-2.33-3.42-6.68,1.12-1.71,4.85-3.35,6.55-4.54l22.92-15.88c3.08-2.13,6.24-4.2,9.21-6.49,1.83-1.41,5-3.43,5.78-5.8s-.47-3.45-1.81-5.22a119.58,119.58,0,0,0-8.07-9.51c-4-4.27-8.82-8.76-14.88-9.61-4.65-.65-9.53,1.89-8.14,7.2a1.51,1.51,0,0,0,2.9-.8Z" transform="translate(-304.24 -325.42)"/><path class="cls-9" d="M695.39,593.69l0-17.45c0-2,.13-4.23,1.69-5.43a6.17,6.17,0,0,1,3.33-1,56.47,56.47,0,0,1,14.51.76c2.88.52,6,1.45,7.58,3.89,1.91,2.9,1,6.73.25,10.12s-1,7.53,1.68,9.75c1.26,1,3.21,1.84,3.16,3.47s-2.61,2.76-2.52,4.54c4.76-3.35,9.61-6.74,15.16-8.47A28.88,28.88,0,0,1,771,603.83c4.88,6.48,6.73,14.73,7.71,22.78,1.47,12.14,1.15,24.88-3.87,36a14.55,14.55,0,0,1-4.17,5.85c-2.17,1.62-5,2.11-7.69,2.3-9.11.63-18.16-1.58-26.91-4.17-5.68-1.68-12.08-4.3-13.75-10a1.65,1.65,0,0,1,0-1.29,1.72,1.72,0,0,1,1-.62A39.79,39.79,0,0,1,734,652.93c3.33-.1,6.71.21,10-.44,4.76-.93,8.89-3.8,12.86-6.6a4.82,4.82,0,0,0,1.89-2,4.58,4.58,0,0,0-.14-2.85,44.48,44.48,0,0,0-5-11.45,8.08,8.08,0,0,0-7.27-4.62,44.26,44.26,0,0,0-23.52,3.79,10.11,10.11,0,0,0-4.18,3c-1.42,2-1.46,4.58-1.44,7l.27,36.62a6.39,6.39,0,0,1-.58,3.33c-.84,1.41-2.59,1.95-4.18,2.37-3.7,1-7.5,1.95-11.3,1.51s-7.65-2.66-8.9-6.27c-1.79-5.21,2.26-10.65,2.23-16.16a5.77,5.77,0,0,0-5.22,1.29,51.16,51.16,0,0,0-4,4,2.58,2.58,0,0,1-1.94.95c-1-.11-1.57-1.29-1.89-2.29l-4.47-14a19.57,19.57,0,0,1-1.22-5.71c-.06-4,2.33-7.71,5.17-10.57s6.2-5.17,8.9-8.16a9.09,9.09,0,0,0,2.37-4.12,4,4,0,0,0-1.65-4.19c-2.14-1.19-5,.49-7.2-.57A6.13,6.13,0,0,1,681.2,614a66.25,66.25,0,0,1-5.2-12.53c-.69-2.29-1.2-5,.16-6.91,1.89-2.73,6-2.34,9.22-1.66l10,2.12" transform="translate(-304.24 -325.42)"/><path d="M696.89,593.69l0-10.66c0-3.75-1.44-10,3.5-11.68,2.76-.91,7.17-.16,10,.13,4.74.48,11.18,1.08,11.72,7.15.44,4.83-2.71,9.33-.63,14.16.56,1.32,1.35,1.79,2.18,2.88,1.08,1.42,1.42,2.15.93,4.1-.19.76-.79,1.34-1,2.21-.27,1.17,1.06,2.49,2.2,1.69,9.86-6.91,20.19-12.22,32.31-7.62,11.92,4.54,16.92,15.88,18.76,27.73,2,12.67,2.15,27-3.59,38.76-6.13,12.56-27.16,5.63-37.42,2.43a31,31,0,0,1-6.77-2.78c-1.3-.79-4-2.29-4.34-3.89-.49-2.07,1.4-2.47,2.54-3,5.08-2.51,12.41-.18,17.91-1.51,4.51-1.09,8.8-3.74,12.43-6.57,3.42-2.66,3-5.13,1.64-9.09s-3.27-9-6.44-12-8.36-3-12.52-2.89c-7,.17-20.69,1.79-23.82,9.4-2.12,5.14-.75,12.31-.72,17.72l.16,21.19c0,1.45.36,3.39,0,4.8-.76,2.72-3,3.19-5.45,3.79-4,1-8.58,1.91-12.45,0-8.23-4.17-2.14-13.31-1.77-19.91a1.51,1.51,0,0,0-1.1-1.45,8.68,8.68,0,0,0-7.73,2.6c-2.26,2.1-3.06,4.49-4.78.63a80.22,80.22,0,0,1-2.52-7.88c-1.94-6.08-4-11.37.32-17,3.35-4.42,8.51-7.09,11.77-11.58,1.48-2,2.49-4.63,1.4-7.08-1.53-3.43-4.11-2.36-7.09-2.79-4.34-.64-6.07-6.29-7.39-9.71-.4-1.06-.79-2.12-1.14-3.2-.84-2.59-.92-2.95.31-5.81,1.35-3.15,1.37-3.08,4.37-2.87a28.87,28.87,0,0,1,4,.69l8.35,1.76c1.89.4,2.69-2.49.8-2.89-6.34-1.34-22.7-7.06-21.93,5,.33,5.24,3.38,11.67,6,16.14a7.67,7.67,0,0,0,3.3,3.48c1.07.46,2.35,0,3.27.37,2-.71,2.63.26,2,2.92q1.74,2.81-.67,4.32c-1.74,2.68-5.47,4.61-7.71,6.92a21.24,21.24,0,0,0-4.55,6.51c-2.09,5.11-.26,9.75,1.33,14.73,1.1,3.45,2,7.16,3.36,10.51.5,1.19.91,2.37,2.13,3,4.6,2.27,7.06-6.62,11.91-5.87l-1.1-1.44c-.31,5.47-4.07,11-2.17,16.56,1.45,4.23,5.68,6.71,9.94,7.31s11-.26,14.83-2.47c4.69-2.71,3.11-9.36,3.07-13.89l-.15-21.2c0-3.61-.79-8.18.2-11.7,1.23-4.38,6.85-5.86,10.71-7a43.52,43.52,0,0,1,11.51-1.62c5.42,0,9.17.78,12.05,5.7,1.45,2.48,4,6.52,4,9.55,0,4.44-8.63,8.26-12,9.22-6,1.69-12.54.37-18.69,1.7-4.67,1-7.3,2.66-4.33,7.44,2.15,3.46,5.9,5.48,9.58,6.91a90.17,90.17,0,0,0,20,5.07c5.63.79,12.68,1.54,18-1,4.36-2.09,6.33-6.66,7.91-11,4.43-12.14,4.07-25.89,1.84-38.44-2.1-11.88-7.69-22.76-19.25-27.67-13.26-5.63-24.91-.36-36,7.38l2.2,1.7c.57-2.53,3.57-3.65,2.14-6.6-.43-.89-1.27-1.3-1.92-2-2.87-3-3.26-5.32-2.54-9.19,1.23-6.58,1.43-12.68-6-15.16a42.91,42.91,0,0,0-12.34-1.66c-2.81-.06-7.24-.5-9.7,1.43-2,1.61-2.21,4.22-2.28,6.61-.18,5.8,0,11.64,0,17.45a1.5,1.5,0,0,0,3,0Z" transform="translate(-304.24 -325.42)"/></svg>